<?xml version="1.0" encoding="utf-8"?>
<!-- Generator: Adobe Illustrator 16.0.0, SVG Export Plug-In . SVG Version: 6.00 Build 0)  -->
<!DOCTYPE svg PUBLIC "-//W3C//DTD SVG 1.1//EN" "http://www.w3.org/Graphics/SVG/1.1/DTD/svg11.dtd">
<svg version="1.1" id="Layer_1" xmlns="http://www.w3.org/2000/svg" xmlns:xlink="http://www.w3.org/1999/xlink" x="0px" y="0px"
	 width="1400px" height="980px" viewBox="0 0 1400 980" enable-background="new 0 0 1400 980" xml:space="preserve">
<rect x="0.001" y="0.001" fill-rule="evenodd" clip-rule="evenodd" fill="#FFFFFF" width="1399.998" height="979.999"/>
<path fill-rule="evenodd" clip-rule="evenodd" fill="#40291A" d="M387.963,403.834c2.274-13.263,7.009-23.523,21.626-30.552
	c7.092-5.509,16.158-8.062,25.094-7.043c9.202,1.048,17.615,5.737,23.299,13.055c10.126,13.035,23.167,27.399,37.767,35.496
	c24.355,12.248,47.115,27.263,67.796,45.034l16.467,17.096c4.698,7.426,6.982,16.374,6.037,25.586
	c-1.025,9.989-1.668,20.573-0.741,30.591c3.969,42.916-17.041,63.578-56.667,74.724l-1.847,0.521l-1.762-0.765
	c-1.906-0.826-3.664-1.852-5.233-3.085c-1.333,2.055-2.667,4.114-4,6.169l-1.731,2.669l-3.172-0.22
	c-13.721-0.943-25.979-6.921-36.601-15.413c-10.388-8.305-13.045-19.295-11.354-30.75l-0.7-0.789
	c-3.654-4.118-6.96-8.919-10.001-13.501c-4.649-7.003-9.017-14.237-13.271-21.488c-12.929-22.042-25.037-44.737-36.9-67.373
	c-5.896-8.291-11.578-16.777-17.222-25.238l-0.728-1.092l-0.145-1.306c-0.56-5.036-0.267-10.152,0.865-15.09
	C386.14,415.386,386.875,409.559,387.963,403.834z"/>
<path fill-rule="evenodd" clip-rule="evenodd" fill="#B86C32" d="M406.681,460.963c29.396,56.097,49.261,89.963,59.599,101.609
	c1.615-1.709,2.779-4.354,3.493-7.931c1.864-6.384,5.829-13.285,11.896-20.698c4.893-7.386,1.703-15.967,2.319-28.902
	c1.162-24.392,11.536-35.995,35.01-42.621c13.245-3.737,27.586-3.377,41.026,1.501c-20.146-17.315-42.412-32.1-66.795-44.354
	c-12.663-6.999-25.832-19.318-39.512-36.961c-4.808-6.152-11.886-10.118-19.643-11.003c-7.76-0.885-15.55,1.386-21.619,6.299
	c-9.216,4.234-15.71,12.362-18.066,21.773c-1.611,6.435-2.476,14.709-4.285,22.6c-0.993,4.329-1.259,8.819-0.763,13.285
	C396.718,446.624,402.498,455.091,406.681,460.963z"/>
<path fill-rule="evenodd" clip-rule="evenodd" fill="#E8AF72" d="M519.197,595.491c1.634,3.157,4.295,5.533,7.983,7.133
	c38.194-10.746,56.388-29.708,52.75-69.031c-0.815-8.801-0.567-19.348,0.745-31.637c1.577-15.858-7.759-30.777-22.709-36.291
	c-15.297-5.955-32.379-5.3-47.174,1.811c-9.41,4.344-16.158,10.488-20.242,18.431c-6.258,12.181-4.215,19.537-3.692,31.765
	c0.082,1.949,0.071,3.784-0.035,5.51c-0.779,12.724-9.942,19.449-14.992,31.994c-6.797,16.883-4.852,29.651,5.835,38.302
	c11.039,8.716,22.241,13.465,33.6,14.246C516.552,599.568,519.197,595.491,519.197,595.491z"/>
<path fill-rule="evenodd" clip-rule="evenodd" fill="#BD8952" d="M530.293,592.239c-4.602,1.006-9.133,2.246-13.721,3.284
	c-3.703,0.842-7.458,1.51-11.271,1.311c-8.439-0.436-15.592-5.307-21.989-10.421c-9.227-7.373-6.938-18.314-3.093-27.86
	c2.968-7.373,8.191-13.286,11.654-20.312c2.272-4.614,3.66-9.363,3.975-14.511c0.132-2.145,0.135-4.297,0.043-6.445
	c-0.445-10.437-2.411-17.293,2.702-27.242c3.463-6.74,9.336-11.206,16.067-14.394c12.536-5.931,27.075-6.6,39.998-1.567l0.204,0.078
	c10.982,4.158,18.025,15.132,16.819,26.869c-1.131,11.02-1.778,22.348-0.755,33.398c3.009,32.504-10.291,48.08-40.348,57.735
	l-0.141,0.045L530.293,592.239L530.293,592.239z M529.626,589.196c27.573-8.858,41.162-22.478,38.2-54.484
	c-1.036-11.186-0.387-22.844,0.757-34.001c1.062-10.331-5.099-20.056-14.821-23.641l-0.206-0.077
	c-12.172-4.74-25.779-4.104-37.563,1.471c-6.104,2.889-11.493,6.897-14.63,12.999c-4.728,9.199-2.785,15.759-2.36,25.691
	c0.096,2.254,0.093,4.517-0.045,6.767c-0.342,5.574-1.833,10.701-4.292,15.694c-3.412,6.926-8.704,13.017-11.556,20.101
	c-3.343,8.301-5.762,17.944,2.148,24.268C503.466,598.538,508.839,593.752,529.626,589.196z"/>
<path fill-rule="evenodd" clip-rule="evenodd" fill="#BD8952" d="M520.428,487.334c-18.311,7.872-10.24,23.582-11.741,39.231
	c-2.899,21.631-15.067,27.462-18.213,41.761c-1.629,7.401,2.547,10.25,8.596,13.22c8.815,4.326,16.992,0.973,25.767-1.469
	c19.511-5.436,31.925-12.609,33.229-34.521c0.356-8.483-0.665-17.077-0.415-25.72c0.252-6.58,2.004-20.341-0.083-25.883
	C552.473,480.427,530.952,482.801,520.428,487.334L520.428,487.334z M511.887,526.993l0.008-0.062l0.006-0.057
	c0.506-5.277-0.017-10.441-0.338-15.698c-0.24-3.923-0.425-8.5,0.938-12.239c1.583-4.35,5.078-6.864,9.202-8.635
	c8.606-3.703,28.548-6.612,32.843,4.789c1.819,4.834,0.063,18.97-0.122,24.638c-0.283,8.558,0.883,17.127,0.417,25.651
	c-1.115,20.427-12.774,26.546-30.872,31.584c-7.723,2.152-15.688,5.505-23.478,1.681c-2.049-1.006-5.194-2.56-6.433-4.57
	c-0.934-1.518-0.8-3.381-0.432-5.054c0.666-3.027,1.827-5.757,3.329-8.455c2.549-4.573,5.733-8.769,8.291-13.383
	C508.807,540.758,510.91,534.285,511.887,526.993z"/>
<path fill-rule="evenodd" clip-rule="evenodd" fill="#BD8952" d="M520.102,514.236c-0.545-5.537-1.27-12.187,3.597-16.149
	c2.71-2.21,8.7-3.312,12.118-3.711c4.165-0.488,12.327-0.973,14.736,3.365c1.957,3.516-0.108,17.244-0.214,21.969
	c-0.238,10.754,3.048,28.768-3.206,37.886l-0.047,0.069l-0.051,0.065c-6.317,8.215-19.578,11.711-29.279,13.997
	c-2.499,0.59-5.188,1.245-7.741,1.489c-2.285,0.224-4.873,0.094-6.431-1.855c-2.618-3.268,0.429-8.337,2.218-11.267
	C517.49,540.937,521.921,537.543,520.102,514.236L520.102,514.236z M523.111,513.943c1.884,24.109-2.545,27.764-14.728,47.726
	c-6.156,10.087-1.701,9.562,8.679,7.113c9.129-2.148,21.875-5.485,27.576-12.899c5.507-8.028,2.458-26.339,2.678-36.242
	c0.089-3.988,1.847-18.177,0.594-20.431c-2.205-3.968-18.813-1.619-22.3,1.221C521.795,503.539,522.702,509.777,523.111,513.943z"/>
<path fill-rule="evenodd" clip-rule="evenodd" fill="#BD8952" d="M526.163,549.266c-0.853-2.148,5.167-9.281,0.055-8.166
	c-0.926,0.203-4.447,1.151-4.028-0.903c0.436-2.148,6.1-2.475,5.703-5.685c-0.411-3.309-4.37-6.853,0.226-8.646
	c3.092-1.205,1.271,1.163,3.178-1.51c3.3-4.627,2.873,2.742,3.796,4.269c1.907-1.156,5.719-9.473,5.361-1.949
	c-0.181,3.788-0.747,4.069,3.135,3.027c3.967-1.058,2.108,2.637,0.464,4.35c-4.97,5.176-3.424,1.741-1.418,7.947
	c2.238,6.913-6.787-2.063-9.23-0.289C531.896,542.805,528.287,551.968,526.163,549.266z"/>
<path fill-rule="evenodd" clip-rule="evenodd" fill="#40291A" d="M450.536,480.368c-20.32-24.013-39.571-48.242-57.753-72.688
	c-0.299,1.75-0.594,3.554-0.905,5.383L450.536,480.368z"/>
<path fill-rule="evenodd" clip-rule="evenodd" fill="#40291A" d="M548.988,461.889c-3.609-2.521-9.009-5.88-16.197-10.081
	c4.301,5.914,6.451,8.87,6.451,8.87c4.346,6.631,6.519,9.945,6.519,9.945C548.646,464.702,549.721,461.791,548.988,461.889z"/>
<path fill-rule="evenodd" clip-rule="evenodd" fill="#40291A" d="M485.353,504.625c-3.455-1.591-7.194-6.832-11.223-15.723
	c7.886,3.719,11.829,5.578,11.829,5.578c6.213,4.554,8.923,6.815,8.13,6.787C488.266,503.506,485.353,504.625,485.353,504.625z"/>
<path fill-rule="evenodd" clip-rule="evenodd" fill="#40291A" d="M420.672,131.699c-0.096-0.45-0.148-0.918-0.152-1.408
	c-0.043-5.029,5.505-8.832,9.177-11.417c11.119-7.837,27.177-15.293,40.527-17.94c26.172-5.19,66.693,1.084,89.543,14.986
	c1.532,0.932,3.027,1.957,4.423,3.083c2.952,2.382,6.177,5.82,5.863,9.916c-0.132,1.721-0.834,3.131-1.868,4.28
	c0.903,0.981,1.445,2.289,1.862,3.62c1.416,4.521,2.012,10.174,2.47,14.889c0.643,6.645,1.007,13.344,1.284,20.011
	c0.446,10.75,0.615,21.505,0.716,32.261l0.008,0.871c4.05,5.9,8.413,11.056,13.928,15.71c5.69,4.804,12.187,8.927,18.357,13.094
	c1.949,1.318,3.829,3.127,2.814,5.802c-1.237,3.259-4.649,2.545-7.286,2.738c-15.757,1.158-31.018-0.159-45.837-4.6
	c4.287,4.083,8.864,7.833,13.937,11.104c9.149,5.898,19.373,9.947,29.582,13.599c0.755,0.271,1.542,0.563,2.256,0.926
	c1.731,0.885,2.946,2.645,2.431,4.694c-1.062,4.238-6.248,2.822-9.218,2.749c-26.432-0.639-53.766-5.001-73.185-24.398
	c-12.341,13.581-23.019,28.577-12.207,46.747c1.379,2.321,3.678,5.593,0.665,7.981c-2.177,1.729-4.203,0.586-5.912-0.785
	c-0.828-0.663-1.646-1.327-2.507-1.947c-12.884-9.298-28.133-20.959-32.283-37.118c-3.859,3.111-8.283,5.518-12.665,7.792
	c-7.18,3.728-14.3,7.255-21.305,11.342c-3.251,1.896-6.48,4.026-9.676,6.026c-2.238,1.402-4.476,2.804-6.73,4.175
	c-1.121,0.684-3.216,2.065-4.445,2.427l-4.307,1.268l-0.515-4.46c-0.22-1.894,1.038-3.237,2.124-4.553
	c0.96-1.162,1.945-2.309,2.93-3.452c1.333-1.55,2.846-3.17,4.093-4.769c9.092-11.674,15.739-24.569,20.424-38.21
	c-3.074,2.571-6.992,4.734-12.105,6.927c-7.652,3.286-14.726,5.343-23.092,4.181c-3.056-0.425-6.067-1.188-9.088-1.809
	c-3.746-0.771-7.416-1.292-11.241-1.5c-4.185-0.228-7.735,0.871-10.944,3.56c-1.143,0.958-2.12,2.019-3.147,3.093
	c-1.367,1.43-2.826,2.777-4.976,2.677l-5.357-0.248l2.035-4.962c2.067-5.04,7.027-10.506,11.838-13.063
	c10.708-5.692,18.771-1.827,27.307-12.689c2.385-3.032,4.053-6.287,5.683-9.758l0.991-2.441c1.288-3.282,2.323-6.634,3.282-9.894
	c2.714-10.537,4.4-20.823,5.056-31.684c0.631-10.506,0.427-21.122,0.439-31.648c0.004-2.722,0.161-5.978,2.954-7.39
	C419.974,131.908,420.324,131.782,420.672,131.699z"/>
<path fill-rule="evenodd" clip-rule="evenodd" fill="#B86C32" d="M570.755,206.027c10.51,15.625,18.852,20.566,33.939,30.759
	c3.078,2.08,0.602,1.402-2.633,1.638c-18.52,1.363-36.257-0.771-53.446-7.559c-2.215-3.379-3.996-7.888-5.34-13.525
	c-0.015-0.578-0.356-1.101-0.881-1.343c-0.527-0.242-1.146-0.167-1.597,0.2c-0.45,0.364-0.653,0.954-0.523,1.518
	c0.706,1.923,1.329,3.78,1.866,5.577c0.594,2.028,1.125,4.138,1.591,6.327c17.547,20.105,30.143,27.326,55.017,36.237
	c5.76,2.051-0.849,1.088-3.168,1.031c-25.958-0.626-53.157-4.846-71.871-24.593c-2.004-9.056-3.276-18.158-3.815-27.313
	c-0.083-0.771-0.732-1.353-1.507-1.355c-0.775,0-1.424,0.584-1.508,1.355c2.173,18.699,3.259,28.052,3.259,28.052
	c-13.812,15.082-25.295,31.742-13.291,51.917c3.086,5.186,1.333,2.865-2.293,0.248c-12.73-9.184-28.758-21.265-31.415-37.771
	c6.913-8.885,11.137-20.776,12.671-35.679c0.057-0.433-0.14-0.86-0.502-1.103c-0.366-0.24-0.836-0.254-1.212-0.033
	c-0.376,0.22-0.594,0.637-0.563,1.074c-6.826,40.786-16.779,36.324-49.347,55.329c-2.865,1.672-18.858,11.928-20.016,12.268
	c-0.042-0.382,7.564-8.976,8.376-10.018c17.482-22.451,26.19-49.245,29.305-77.264c-0.083-0.631-0.604-1.109-1.239-1.14
	c-0.637-0.028-1.201,0.399-1.345,1.018c-0.789,6.191-1.646,11.485-2.573,15.877c-3.054,13.882-7.162,18.789-20.303,24.431
	c-19.958,8.567-22.796,1.692-41.721,0.572c-12.876-0.613-16.976,9.426-19.1,9.328c1.719-4.191,6.059-9.003,10.116-11.162
	c10.246-5.446,18.913-1.487,28.505-13.688c2.651-3.373,4.364-6.72,6.173-10.58l1.047-2.578c1.351-3.448,2.382-6.783,3.42-10.329
	c6.27-24.331,5.588-39.767,5.619-64.27c0.006-6.459,1.469-3.978,7.613-1.62c28.583,10.979,58.352,14.181,88.682,10.458
	c17.607-2.484,28.184-5.935,44.684-11.944c3.08-1.121,3.872-2.057,5.011,1.575c3.752,11.965,4.163,51.473,4.297,66.066
	L570.755,206.027z"/>
<path fill-rule="evenodd" clip-rule="evenodd" fill="#E8AF72" d="M560.852,133.261c-41.136,15.686-89.065,21.37-130.3,2.803
	c-10.589-4.767-6.067-8.895,1.323-14.103c10.528-7.42,26.46-14.722,39.085-17.322c25.179-4.897,64.78,1.084,86.845,14.508
	c5.084,3.095,13.845,9.89,4.069,13.713L560.852,133.261z"/>
<path fill-rule="evenodd" clip-rule="evenodd" fill="#BD8952" d="M516.523,139.002c3.835-0.49,44.426-7.505,40.175-13.766
	c-2.301-3.387-18.665-9.204-23.089-10.49c-31.946-8.38-68.799-9.77-96.836,10.4c-5.038,3.622-3.532,4.989,1.07,7.644
	C456.062,143.299,498.799,141.273,516.523,139.002L516.523,139.002z M544.115,121.848c16.111,5.881,3.247,6.941-7.656,9.993
	c-4.315,1.048-8.673,1.963-13.035,2.79c-2.387,0.452-4.893,0.948-7.3,1.255c-17.285,2.213-52.256,3.595-71.234-3.318
	c-6.946-2.529-9.786-2.671-3.493-6.783c26.843-17.543,61.491-15.847,91.414-7.996C536.511,118.863,540.474,120.366,544.115,121.848z
	"/>
<path fill-rule="evenodd" clip-rule="evenodd" fill="#BD8952" d="M455.486,124.167c-9.961,4.785-0.767,5.981,4.649,6.726
	c14.488,1.554,63.202,2.289,74.566-4.309c4.608-2.678-4.807-4.08-6.606-4.482c-16.815-3.768-32.365-5.076-49.568-3.916
	C470.356,119.007,462.957,120.692,455.486,124.167z"/>
<path fill-rule="evenodd" clip-rule="evenodd" fill="#E8AF72" d="M455.356,126.459c-3.198,1.801,1.274,1.895,3.139,2.165
	c12.594,1.471,64.404,2.783,73.216-3.314c-7.084-3.814-37-5.601-46.12-5.497C475.089,120.085,464.778,121.573,455.356,126.459z"/>
<path fill-rule="evenodd" clip-rule="evenodd" fill="#BD8952" d="M470.71,126.167c6.388,0.336,42.979,2.021,45.919-1.005
	c-5.324-3.092-36.273-2.366-43.701-1.062C470.68,124.494,463.604,125.746,470.71,126.167z"/>
<path fill-rule="evenodd" clip-rule="evenodd" fill="#40291A" d="M452.209,145.244c11.896-4.309,17.844-6.463,17.844-6.463
	c-8.282,4.592-12.424,6.889-12.424,6.889c-3.487,15.949-5.168,23.33-5.046,22.146C452.335,152.768,452.209,145.244,452.209,145.244z
	"/>
<path fill-rule="evenodd" clip-rule="evenodd" fill="#40291A" d="M550.021,138.783c-13.375-3.644-20.062-5.463-20.062-5.463
	c6.075,5.937,9.112,8.905,9.112,8.905c0.684,12.221,1.011,18.374,0.985,18.455C546.699,146.081,550.021,138.783,550.021,138.783z"/>
<path fill-rule="evenodd" clip-rule="evenodd" fill="#40291A" d="M504.683,193.348c-2.995,19.969-4.49,29.954-4.49,29.954
	c0.574-50.277,0.861-75.415,0.861-75.415c1.886,0.246,2.83,0.368,2.83,0.368c-0.657,29.447-0.985,44.169-0.985,44.169
	C504.353,193.092,504.947,193.399,504.683,193.348z"/>
<path fill-rule="evenodd" clip-rule="evenodd" fill="#40291A" d="M432.279,137.926c-1.149-0.165-1.723-0.246-1.723-0.246
	c2.461,42.322,3.69,63.482,3.69,63.482C432.934,159.006,432.279,137.926,432.279,137.926z"/>
<path fill-rule="evenodd" clip-rule="evenodd" fill="#40291A" d="M557.828,135.649c-1.721,0.901-2.584,1.353-2.584,1.353
	s1.477,17.716,4.429,53.147C559.716,189.987,559.1,171.819,557.828,135.649z"/>
<path fill-rule="evenodd" clip-rule="evenodd" fill="#40291A" d="M484.38,148.198c1.821,7.015,1.514,16.49-0.924,28.418
	c1.146-9.277,0.981-18.709-0.492-28.294C483.908,148.239,484.38,148.198,484.38,148.198z"/>
<path fill-rule="evenodd" clip-rule="evenodd" fill="#40291A" d="M378.61,845.344c-0.698,0.244-1.43,0.402-2.193,0.451
	c-3.298,0.208-5.933-1.713-7.786-4.276c-6.293-8.688-7.471-26.729-7.465-37.175c0.006-8.776,1.093-40.304,13.103-42.11
	c0.354-0.053,0.702-0.077,1.043-0.081c0.047-0.297,0.134-0.614,0.271-0.944c0.767-1.88,2.545-2.51,4.407-2.466
	c8.533,0.208,16.909-0.113,25.362-1.343c8.433-1.225,16.691-3.283,24.894-5.558c25.765-7.142,49.15-7.694,75.47-3.589
	c3.436,0.537,6.854,1.298,10.258,2.022c2.446,0.524,4.997,1.082,7.544,1.501c-0.553-2.214-1.143-4.415-1.678-6.628
	c-0.362-1.502-0.793-3.052-1.072-4.565c-0.297-1.607-0.297-3.158,0.74-4.533c1.243-1.648,3.127-1.811,4.881-2.556
	c0.21-0.094,0.513-0.321,0.698-0.455c0.49-0.366,0.954-0.762,1.442-1.128c1.365-1.021,3.058-1.591,4.7-0.688
	c1.92,1.05,3.04,4.647,3.922,6.596c1.227,2.715,2.694,5.498,4.647,7.76c0.749,0.867,1.584,1.673,2.521,2.332
	c1.827,1.29,3.727,2.481,5.54,3.784c2.297,1.647,4.258,3.471,6.215,5.505l0.045,0.049c0.502,0.541,0.862,1.078,1.296,1.615
	c0.067,0.024,0.136,0.045,0.193,0.065c5.674,1.896,11.393,3.264,17.317,4.102c6.396,0.907,12.136,0.802,18.553,0.761
	c2.055-0.012,4.232-0.374,6.118,0.672c1.933,1.07,2.708,3.023,3.311,5.025c5.816,19.315,10.772,46.395-2.934,63.55l-0.051,0.068
	l-0.057,0.062c-3.642,4.138-5.033,4.577-10.372,5.11c-18.726,1.872-37.772,2.108-56.576,1.652
	c-18.095-0.439-36.175-1.562-54.222-2.975c-11.358,0.761-29.754,2.918-37.372,12.224c-0.7,0.854-1.288,1.721-1.764,2.718
	c-0.474,0.993-0.792,1.863-1.54,2.714c-1.794,2.043-4.734,2.263-7.263,2.486c-0.179,0.013-0.358,0.032-0.537,0.057
	c-2.458,0.302-4.97,0.854-7.167-0.736c-1.461-1.058-2.142-2.677-2.236-4.435c-0.222-4.082,1.65-9.619,4.059-14.507
	c-13.273,3.451-26.713,5.933-40.303,8.017c-0.108,0.016-0.214,0.036-0.322,0.057C382.324,845.914,380.24,846.601,378.61,845.344z"/>
<g>
	<path fill-rule="evenodd" clip-rule="evenodd" fill="#006633" d="M480.969,738.015l-2.019-2.637l2.82-1.758
		c5.249-3.271,11.265-3.849,17.189-3.031c-0.736-1.839-1.353-3.8-1.855-5.871l-0.795-3.275l3.341-0.436
		c21.964-1.628,23.285,17.188,26.723,18.478c3.654,1.371,15.417-2.877,0.275,5.525c-11.499,6.38-20.506,8.036-32.963,3.035
		C488.405,745.698,484.56,742.507,480.969,738.015z"/>
	<g>
		<path fill-rule="evenodd" clip-rule="evenodd" fill="#34994A" d="M520.243,742.141c-11.642,2.157-17.436-8.695-20.205-18.14
			c8.418-0.586,15.543,2.466,19.871,9.998c0.862,1.501,2.588,6.25,1.328,7.634L520.243,742.141z"/>
		<path fill-rule="evenodd" clip-rule="evenodd" fill="#34994A" d="M483.367,736.184c4.997-3.112,11.375-3.727,19.132-1.847
			c6.004,8.016,8.537,8.891,18.215,9.969c-10.698,7.687-27.515,3.084-35.804-6.327l-0.767-0.871L483.367,736.184z"/>
	</g>
	<path fill-rule="evenodd" clip-rule="evenodd" fill="#006633" d="M497.621,740.608c3.998-0.269,7.354-0.371,11.369-0.176
		c-2.494-2.188-2.244-1.985-5.64-1.794c-1.691,0.102-5.528,0.761-6.712,1.974L497.621,740.608z"/>
	<path fill-rule="evenodd" clip-rule="evenodd" fill="#006633" d="M509.203,731.863c1.365,1.318,12.032,9.262,13.609,9.868
		c0.468-1.628-6.14-5.066-7.489-5.938C513.333,734.508,511.22,733.064,509.203,731.863z"/>
</g>
<g>
	<path fill-rule="evenodd" clip-rule="evenodd" fill="#B86C32" d="M478.718,833.406c34.906,2.734,75.556,4.834,110.421,1.351
		c4.382-0.439,5.005-0.447,8.067-3.927c12.793-16.016,7.759-42.224,2.309-60.319c-1.182-3.926-1.884-3.202-6.014-3.178
		c-7.103,0.049-11.892,0.175-19.073-0.793c-6.185-0.928-12.002-2.267-17.94-4.248c-1.839-0.614-1.501-1.054-2.966-2.633
		c-4.635-4.813-6.254-5.33-11.243-8.851c-6.958-4.907-9.642-15.869-10.752-16.479c-0.419-0.231-2.254,1.787-3.75,2.426
		c-4.256,1.811-4.342-0.086-2.494,7.56c0.952,3.939,2,7.564,2.815,11.577c-6.779-0.456-15.694-3.008-22.929-4.139
		c-26.003-4.057-48.509-3.503-73.977,3.504c-18.799,5.265-31.649,7.507-51.29,7.031c-2.073-0.054-0.667,0.964,0.527,2.652
		c10.093,14.303,13.098,26.429,11.855,43.771c-0.979,15.161-1.072,19.971-11.072,32.516c-1.709,2.145,0.659,1.099,2.822,0.765
		c16.581-2.543,32.369-5.55,48.486-10.303c-3.512,4.545-8.476,14.421-8.168,20.102c0.171,3.125,3.218,2.034,6.091,1.782
		c7.144-0.64,3.803-1.339,8.143-6.637C447.1,836.539,466.269,834.223,478.718,833.406z"/>
	<path fill-rule="evenodd" clip-rule="evenodd" fill="#E8AF72" d="M371.5,839.444c-13.084-18.07-6.142-97.437,11.292-66.772
		c6.199,10.9,8.435,21.916,7.581,32.561c0.039,13.346-2.14,23.49-6.535,30.439C380.995,840.164,376.065,845.747,371.5,839.444z"/>
</g>
<path fill-rule="evenodd" clip-rule="evenodd" fill="#BD8952" d="M376.021,795.454c-4.321,3.621-1.811,21.826,0.71,21.867
	c2.836,0.049,3.192-13.367,3.074-15.698C379.687,799.335,379.367,794.652,376.021,795.454z"/>
<path fill-rule="evenodd" clip-rule="evenodd" fill="#BD8952" d="M374.938,783.389c-12.305,7.634-5.158,46.013,2.02,46.098
	c8.073,0.098,9.088-28.178,8.75-33.093C385.377,791.572,384.464,781.701,374.938,783.389L374.938,783.389z M374.914,785.281
	c8.036-1.55,8.807,7.508,9.086,11.931c0.287,4.513-0.57,30.461-7.383,30.371C370.562,827.501,364.534,792.284,374.914,785.281z"/>
<path fill-rule="evenodd" clip-rule="evenodd" fill="#40291A" d="M385.731,776.118c-5.414,1.786-8.122,2.678-8.122,2.678
	c4.041-4.777,6.061-7.166,6.061-7.166c9.574,2.479,14.364,3.72,14.364,3.72C389.627,775.65,385.526,775.906,385.731,776.118z"/>
<path fill-rule="evenodd" clip-rule="evenodd" fill="#40291A" d="M605.952,811.306c0.368-5.822,0.553-8.735,0.553-8.735
	c-8.53,3.486-12.795,5.229-12.795,5.229C601.871,810.139,605.952,811.306,605.952,811.306z"/>
<path fill-rule="evenodd" clip-rule="evenodd" fill="#40291A" d="M603.183,781.778c-4.456-1.343-9.07-3.149-13.841-5.412
	c4.277,0.785,8.378,0.415,12.303-1.106C602.923,779.491,603.436,781.664,603.183,781.778z"/>
<polygon fill-rule="evenodd" clip-rule="evenodd" fill="#40291A" points="387.829,830.032 385.524,819.64 389.859,823.953 
	398.718,825.789 "/>
<path fill-rule="evenodd" clip-rule="evenodd" fill="#40291A" d="M596.294,778.518c-2.069-1.172-3.104-1.758-3.104-1.758
	c-32.888-3.711-63.273-10.107-91.16-19.193C531.237,768.582,562.658,775.564,596.294,778.518z"/>
<path fill-rule="evenodd" clip-rule="evenodd" fill="#40291A" d="M392.036,793.069c-0.443,1.429-0.665,2.145-0.665,2.145
	c19.242-2.022,39.911-4.977,62.005-8.858c3.841-0.846,7.493-1.57,10.956-2.177c15.419-2.693,27.065-2.994,34.932-0.899
	c-15.137-5.082-22.268-2.132-37.192-0.053C436.968,786.721,413.781,790.999,392.036,793.069z"/>
<path fill-rule="evenodd" clip-rule="evenodd" fill="#40291A" d="M535.351,823.937c16.946,2.511,35.565,3.003,55.855,1.477
	C576.61,824.816,557.993,824.324,535.351,823.937z"/>
<path fill-rule="evenodd" clip-rule="evenodd" fill="#40291A" d="M690.695,763.167l0.028,0.134
	c1.433,6.706,4.15,13.078,6.574,19.466c1.87,4.92,3.644,9.981,4.341,15.223c0.08,0.598,0.146,1.2,0.195,1.799
	c1.307,16.06,0.189,29.272-5.216,44.539c-0.775,2.189-2.024,4.109-1.404,6.506c0.623,2.401,2.525,3.438,4.462,4.717
	c30.951,20.405,71.205,29.838,108.047,28.349c16.215-0.655,35.693-3.72,50.936-9.322c2.348-0.867,4.577-1.172,6.115-3.345
	c1.278-1.807,1.273-3.878,0.745-5.953c-5.644-22.253-11.499-47.07-8.749-70.109c0.473-3.979,0.094-8.023,0.399-12.023
	c0.558-7.32,3.82-23.849,9.191-28.895c6.336-5.948,12.431-10.07,16.63-18.018c0.298-0.562,0.631-1.099,0.924-1.655
	c0.969-1.852,1.181-3.866-0.122-5.611c-1.534-2.06-3.918-2.21-6.188-1.392c-0.362,0.13-0.757,0.248-1.132,0.301l-0.829,0.118
	l-0.684-0.48c-0.313-0.22-0.578-0.472-0.867-0.716c-1.266-1.074-2.535-1.814-4.236-1.807c-0.297,0-0.59,0.028-0.879,0.081
	c-1.847,0.321-5.383,3.305-6.925,4.477c-1.034,0.781-2.063,1.562-3.089,2.352l-2.588,1.989l-0.744-3.182
	c-0.159-0.688-0.428-1.29-0.903-1.818l-0.692-0.773l0.188-1.014c0.082-0.451,0.114-0.911,0.098-1.367
	c-0.094-2.913-2.062-4.932-4.244-6.607c-2.429-1.868-5.065-3.476-7.617-5.168c-38.684-25.676-89.884-26.888-128.104,0.358
	l-0.061,0.045l-0.062,0.044c-2.018,1.555-4.024,2.597-4.378,5.339c-0.122,0.956,0,1.852,0.398,2.73l0.667,1.457l-1.229,1.029
	c-0.699,0.586-1.208,1.354-1.493,2.226c-0.892,2.722-0.582,7.694-0.488,10.604c0.159,5.07,0.403,10.141,0.46,15.214
	c0,0.151,0.004,0.302,0.004,0.452l0.053,5.773l-3.756-4.386c-6.573-7.679-15.083-0.57-13.796,8.183L690.695,763.167z"/>
<g>
	<path fill-rule="evenodd" clip-rule="evenodd" fill="#B86C32" d="M861.246,866.365c0.781,3.076-0.732,2.832-4.109,4.072
		c-14.088,5.181-34.551,8.31-49.594,9.054c-35.881,1.311-75.265-7.727-105.44-27.62c-3.694-2.438-2.929-1.615-1.33-6.071
		c5.676-16.089,6.836-29.37,5.456-46.366c-1.045-12.858-8.604-24.878-11.191-37.048c-0.606-4.114,2.712-9.868,6.883-3.613
		c2.922,4.378,5.924,8.996,9.176,13.122c3.312-12.26-0.122-39.018,1.289-43.335c0.424-1.286,3.613,1.737,4.424,2.323
		c17.7,12.802,34.436,22.962,56.266,26.908c7.983,1.376,15.264,1.562,23.324,0.851c23.087-2.881,35.562-11.405,52.99-25.862
		c2.67-2.214,2.019-0.932,2.116,2.604c0.272,9.456,0.781,7.373,8.37,1.392c0.956-0.753,9.432-7.284,9.863-7.361
		c1.623-0.285,3.137,4.549,9.358,2.312c2.116-0.766,0.997,0.562,0,2.445c-4.012,7.58-9.811,11.283-15.755,16.866
		c-6.372,5.989-9.872,23.165-10.567,31.774c-0.272,4.094,0.094,7.841-0.383,11.837C849.592,818.126,855.492,843.679,861.246,866.365
		z"/>
	<path fill-rule="evenodd" clip-rule="evenodd" fill="#E8AF72" d="M715.979,722.497c-2.91-2.454-1.9-2.405,0.943-4.594
		c36.719-26.258,85.971-24.915,123.1-0.273c13.119,8.708,13.237,7.613,0.094,17.277c-16.654,12.248-31.534,19.515-52.612,19.539
		C760.424,754.207,736.229,739.179,715.979,722.497z"/>
</g>
<path fill-rule="evenodd" clip-rule="evenodd" fill="#BD8952" d="M739.322,716.409c-13.363,6.759-2.498,10.201,5.786,14.515
	c28.263,14.254,53.503,20.369,81.502,1.123c12.846-8.83,0.765-11.056-8.272-14.352C791.653,707.958,765.994,704.316,739.322,716.409
	L739.322,716.409z M740.299,719.107c26.88-12.22,52.551-7.723,79.24,2.209c8.288,3.085,13.122,3.638,3.901,9.404
	c-28.76,17.973-52.652,10.742-80.46-4.22C738.109,723.802,733.561,722.537,740.299,719.107z"/>
<ellipse transform="matrix(0.0957 -0.9954 0.9954 0.0957 -13.9095 1436.798)" fill-rule="evenodd" clip-rule="evenodd" fill="#BD8952" cx="783.851" cy="726.055" rx="4.912" ry="10.434"/>
<path fill-rule="evenodd" clip-rule="evenodd" fill="#40291A" d="M742.395,701.435c-9.091,3.316-13.64,4.977-13.64,4.977
	c13.867,2.502,20.801,3.752,20.801,3.752C744.783,704.344,742.395,701.435,742.395,701.435z"/>
<path fill-rule="evenodd" clip-rule="evenodd" fill="#40291A" d="M842.573,736.282c-9.822-0.228-14.733-0.342-14.733-0.342
	c6.018,4.448,9.024,6.674,9.024,6.674c2.714,25.325,4.073,37.992,4.073,37.992C842.028,751.052,842.573,736.282,842.573,736.282z"/>
<path fill-rule="evenodd" clip-rule="evenodd" fill="#40291A" d="M812.707,753.189c-0.362-5.273-0.546-7.91-0.546-7.91
	c5.001,3.271,7.499,4.911,7.499,4.911c-2.701,35.641-4.02,53.504-3.955,53.597C813.703,770.055,812.707,753.189,812.707,753.189z"/>
<path fill-rule="evenodd" clip-rule="evenodd" fill="#40291A" d="M725.012,734.296c11.682-0.228,17.525-0.342,17.525-0.342
	c-6.682,4.321-10.022,6.478-10.022,6.478c-4.545,27.824-6.819,41.736-6.819,41.736C725.239,750.251,725.012,734.296,725.012,734.296
	z"/>
<path fill-rule="evenodd" clip-rule="evenodd" fill="#40291A" d="M729.104,870.409c-2.091-1.273-3.137-1.912-3.137-1.912
	c2.767-23.079,4.903-42.766,6.413-59.054C732.389,838.691,731.298,859.011,729.104,870.409z"/>
<path fill-rule="evenodd" clip-rule="evenodd" fill="#40291A" d="M844.144,877.635c-2.726,0.546-4.089,0.818-4.089,0.818
	s-0.362-26.005-1.091-78.016C838.964,800.438,840.689,826.17,844.144,877.635z"/>
<path fill-rule="evenodd" clip-rule="evenodd" fill="#40291A" d="M771.862,881.179c4.004,0.366,6.001,0.55,6.001,0.55
	c-0.776-29.635-1.595-44.047-2.453-43.237C773.046,866.951,771.862,881.179,771.862,881.179z"/>
<path fill-rule="evenodd" clip-rule="evenodd" fill="#40291A" d="M825.874,880.223c-2.458-0.089-3.683-0.134-3.683-0.134
	c2.177-43.217,3.223-63.037,3.138-59.465C825.691,860.359,825.874,880.223,825.874,880.223z"/>
<path fill-rule="evenodd" clip-rule="evenodd" fill="#40291A" d="M785.912,756.863c-1.363-0.635-2.043-0.952-2.043-0.952
	c0,32.187,0,48.279,0,48.279C785.232,772.639,785.912,756.863,785.912,756.863z"/>
<path fill-rule="evenodd" clip-rule="evenodd" fill="#40291A" d="M794.99,454.029l3.178-1.886c6.95-4.124,13.51-9,19.157-14.805
	l1.538-1.585l2.136,0.578c1.673,0.454,3.325,0.905,4.997,1.357l4.997,1.288l-2.783,4.366c-3.26,5.103-6.511,10.256-9.587,15.48
	c26.591,5.5,53.202,11.351,79.492,18.124c11.76,2.95,13.334,5.741,14.611,18.472c0.31,3.092,0.106,6.254-0.171,9.297
	c-1.302,14.466-9.533,27.999-23.091,35.539l-0.078,0.045l-0.077,0.036c-9.09,4.513-17.126,4.977-23.97,4.806
	c-51.641-1.294-133.993-40.885-183.696-61.409l-0.371-0.15l-0.332-0.222c-12.681-8.565-20.081-20.339-18.325-35.903
	c0.391-3.462,3.503-6.01,6.783-6.726c11.867-1.125,23.732-2.254,35.596-3.406l0.513-0.051l0.509,0.09
	C735.717,442.652,765.396,448.141,794.99,454.029z"/>
<g>
	<g>
		<path fill-rule="evenodd" clip-rule="evenodd" fill="#E8AF72" d="M669.754,444.469c3.068,0.909,4.602,1.363,4.602,1.363
			c53.634,24.874,99.401,44.067,137.305,57.581c57.011-15.22,85.519-22.827,85.519-22.827
			c-44.963-11.586-108.899-24.76-191.821-39.522C695.934,441.979,684.065,443.114,669.754,444.469z"/>
		<path fill-rule="evenodd" clip-rule="evenodd" fill="#E8AF72" d="M887.638,536.97c19.229-10.693,26.773-34.53,17.208-54.342
			c0,0-30.151,7.723-90.459,23.169C837.76,539.216,862.178,549.604,887.638,536.97z"/>
		<path fill-rule="evenodd" clip-rule="evenodd" fill="#B86C32" d="M838.919,538.508c-9.741-6.23-19.226-16.224-28.45-29.985
			c-47.412-16.459-95.451-36.673-144.118-60.646c-1.475,13.065,4.091,23.854,16.695,32.367
			C731.994,499.938,783.951,519.359,838.919,538.508z"/>
	</g>
	<path fill-rule="evenodd" clip-rule="evenodd" fill="#B86C32" d="M825.04,441.322c-4.72,7.399-8.382,13.36-10.986,17.885
		c-9.314-2.555-13.969-3.831-13.969-3.831c7.779-4.616,14.425-9.757,19.93-15.419C823.367,440.866,825.04,441.322,825.04,441.322z"
		/>
</g>
<path fill-rule="evenodd" clip-rule="evenodd" fill="#BD8952" d="M883.007,524.649c-6.856,3.345-14.274,5.298-21.94,4.952
	c-15.967-0.725-29.382-11.121-39.623-22.579l-2.206-2.47l0.317-0.082l1.298-0.329l1.307-0.338l0.46-0.114l1.135,1.266
	c9.652,10.8,22.4,20.866,37.451,21.55c7.162,0.325,14.047-1.51,20.438-4.639l0.191-0.094l0.184-0.105
	c13.439-7.613,20.894-22.795,18.799-38.007l0.947-0.242l1.538-0.395l0.533-0.136c2.426,16.55-5.704,33.185-20.288,41.473
	l-0.265,0.15L883.007,524.649z"/>
<path fill-rule="evenodd" clip-rule="evenodd" fill="#BD8952" d="M878.556,515.554c10.966-6.213,16.724-18.229,15.401-30.137
	l-63.647,16.299c8.589,9.253,19.282,17.228,31.213,17.769C867.512,519.758,873.217,518.167,878.556,515.554z"/>
<path fill-rule="evenodd" clip-rule="evenodd" fill="#BD8952" d="M708.418,450.237c30.082,13.34,89.705,37.003,121.171,48.391
	l52.571-14.034C830.391,473.027,759.822,459.53,708.418,450.237z"/>
<path fill-rule="evenodd" clip-rule="evenodd" fill="#006633" d="M851.838,437.678c-1.721,5.133-5.492,9.326-10.412,11.584
	c-4.915,2.254-10.567,2.375-15.576,0.33l-1.562-0.637l0.533-1.601c1.709-5.146,5.477-9.349,10.404-11.609
	c4.924-2.256,10.579-2.368,15.588-0.309l1.562,0.643L851.838,437.678z"/>
<path fill-rule="evenodd" clip-rule="evenodd" fill="#34994A" d="M850.125,437.104c-4.549-1.874-9.672-1.772-14.147,0.281
	c-4.472,2.051-7.894,5.868-9.444,10.537c4.549,1.858,9.668,1.75,14.14-0.299C845.141,445.574,848.562,441.765,850.125,437.104z"/>
<path fill-rule="evenodd" clip-rule="evenodd" fill="#006633" d="M825.455,448.174c0.395-1.674,0.594-2.513,0.594-2.513
	c5.001-0.667,8.663-1.52,10.986-2.553c-3.796,2.604-7.219,4.563-10.262,5.875C825.891,448.444,825.455,448.174,825.455,448.174z"/>
<path fill-rule="evenodd" clip-rule="evenodd" fill="#40291A" d="M900.061,528.665c-2.768,6.161-6.914,9.514-12.436,10.051
	c2.592-10.881,3.671-15.739,3.235-14.567C896.996,527.16,900.061,528.665,900.061,528.665z"/>
<path fill-rule="evenodd" clip-rule="evenodd" fill="#40291A" d="M840.352,540.334c-20.158-7.157-30.236-10.733-30.236-10.733
	c24.023-4.94,36.03-7.41,36.03-7.41C842.284,534.285,840.352,540.334,840.352,540.334z"/>
<path fill-rule="evenodd" clip-rule="evenodd" fill="#40291A" d="M841.121,497.83c25.838-7.157,38.757-10.731,38.757-10.731
	c-5.566,7.948-8.35,11.924-8.35,11.924c4.146,4.488,6.222,6.73,6.222,6.73c-7.613-0.513-11.418-0.77-11.418-0.77
	c-5.05,3.919-7.576,5.88-7.576,5.88c1.827-5.55,2.539-8.19,2.128-7.922C847.708,499.535,841.121,497.83,841.121,497.83z"/>
<path fill-rule="evenodd" clip-rule="evenodd" fill="#40291A" d="M666.176,462.676c13.578,8.278,31.909,15.414,54.994,21.407
	c-15.877-4.671-34.293-12.545-55.238-23.623C666.094,461.938,666.176,462.676,666.176,462.676z"/>
<path fill-rule="evenodd" clip-rule="evenodd" fill="#40291A" d="M818.79,515.823c-2.873-2.295-4.31-3.442-4.31-3.442
	c-11.238-0.081-26.863-3.687-46.871-10.827C786.661,509.988,803.723,514.745,818.79,515.823z"/>
<path fill-rule="evenodd" clip-rule="evenodd" fill="#40291A" d="M859.248,111.183c2.295,0.661,4.443,1.644,6.434,2.881
	c1.859,1.137,3.58,2.497,5.131,4.051c9.985,10.03,13.569,23.206,12.402,39.494c-0.021,0.378-0.045,0.755-0.073,1.133
	c6.425,1.922,12.842,3.863,19.263,5.794c1.542,0.464,7.173,4.292,9.163,5.607c9.289,6.14,11.584,18.563,11.975,28.89
	c0.558,14.762-1.896,37.83-11.45,49.581c-3.405,4.189-7.771,7.056-13.15,7.857c-6.576,0.979-12.895-0.114-18.266-4.169
	c-0.566-0.423-1.104-0.871-1.624-1.34c0.053,1.996,0.024,3.992-0.126,5.935c0.866,12.608-4.126,24.961-13.533,33.421
	c-9.497,8.545-22.425,12.207-34.99,9.879c-4.117-0.763-7.959-2.348-11.214-5.013c-1.534-1.257-2.849-2.675-3.972-4.215l-5.078-2.639
	c-49.21-25.57-98.311-51.351-147.375-77.195l-0.761-0.401l-0.533-0.675c-8.366-10.598-11.631-24.445-8.883-37.663
	c1.099-5.279,1.255-6.048,3.674-10.762l1.634-3.04c0.163-0.277,0.33-0.554,0.499-0.826c0.574-0.936,1.182-1.847,1.821-2.738
	c0.004-0.008,0.01-0.017,0.014-0.022c3.683-5.21,7.861-9.086,13.64-12.545c-5.644-10.264-6.903-20.819-4.502-31.467
	c0.055-0.247,0.114-0.493,0.173-0.737c0.23-0.966,0.495-1.924,0.792-2.875c0.163-0.525,0.335-1.046,0.519-1.562
	c0.419-1.19,0.887-2.364,1.41-3.516c0.091-0.208,0.187-0.415,0.285-0.623c4.596-9.947,12.643-17.829,23.116-22.282l1.149-0.488
	l1.225,0.24c27.454,5.402,55.005,10.425,82.532,15.414l0.102,0.018c5.453,1.133,11.129,0.958,16.504-0.5
	c9.542-3.092,18.93-6.779,28.142-10.73l2.901-1.245l1.925,2.506c2.286,2.983,5.289,5.347,8.724,6.869l5.473,2.425l-4.272,4.189
	c-2.966,2.909-5.135,6.527-6.307,10.498c1.799,0.373,3.593,0.745,5.387,1.117l6.91,1.438
	C852.119,109.458,853.86,109.526,859.248,111.183z"/>
<path fill-rule="evenodd" clip-rule="evenodd" fill="#E8AF72" d="M879.162,157.388c2.314-32.379-19.58-52.022-39.043-39.044
	c-19.966,13.312-24.495,48.154-11.449,68.758C848.083,217.776,877.485,188.39,879.162,157.388z"/>
<path fill-rule="evenodd" clip-rule="evenodd" fill="#B86C32" d="M677.667,144.974c-10.864,5.831-18.593,16.174-21.104,28.247
	c-2.511,12.075,0.454,24.64,8.093,34.32c57.853,30.473,106.974,56.201,147.355,77.185c-7.454-30.027,2.942-61.67,26.75-81.425
	C731.367,164.416,677.667,144.974,677.667,144.974z"/>
<path fill-rule="evenodd" clip-rule="evenodd" fill="#B86C32" d="M779.842,98.561c-35.494-6.431-63.025-11.572-82.593-15.423
	c-11.043,4.693-19.468,14.001-23.043,25.456c-3.572,11.454-1.937,23.899,4.478,34.041C782.083,180.545,833.784,199.5,833.784,199.5
	c-11.259-11.753-17.155-27.637-16.296-43.886c0.858-16.252,8.394-31.425,20.829-41.925c-17.351-3.605-26.021-5.41-26.021-5.41
	c-0.497-0.018-0.928-0.344-1.078-0.814c-0.155-0.468,0-0.984,0.386-1.292c0.387-0.307,0.924-0.342,1.348-0.085
	c10.966,2.095,16.446,3.143,16.446,3.143c1.2-5.334,3.919-10.207,7.821-14.036c-4.057-1.798-7.602-4.587-10.303-8.111
	c-10.396,4.459-19.922,8.089-28.581,10.893C792.301,99.631,785.965,99.83,779.842,98.561z"/>
<path fill-rule="evenodd" clip-rule="evenodd" fill="#E8AF72" d="M850.219,205.039c-12.951-1.593-24.564,13.328-34.57,41.17
	c-5.993,30.294-0.83,46.958,15.495,49.994c11.324,2.087,22.974-1.203,31.534-8.905c8.558-7.701,13.058-18.937,12.175-30.418
	c0.276-3.22,0.179-7.412-0.293-12.575c-3.63-6.105-5.358-12.715-6.164-19.737C867.158,213.774,865.714,206.945,850.219,205.039z"/>
<path fill-rule="evenodd" clip-rule="evenodd" fill="#E8AF72" d="M893.415,170.987c16.573-2.584,25.261,6.815,26.07,28.198
	c0.517,13.712-1.737,36.035-10.543,46.867c-2.974,3.658-6.51,5.792-10.6,6.401c-19.567,2.913-25.684-16.504-27.848-31.926
	C867.459,198.939,872.529,174.12,893.415,170.987z"/>
<path fill-rule="evenodd" clip-rule="evenodd" fill="#B86C32" d="M881.062,162.358c0.106,4.112-0.626,8.327-2.192,12.645
	c6.147-5.338,14.311-7.739,22.367-6.578C887.788,164.381,881.062,162.358,881.062,162.358z"/>
<path fill-rule="evenodd" clip-rule="evenodd" fill="#40291A" d="M673.327,111.887c0.651-2.889,1.571-5.618,2.759-8.187
	c0,0,3.245,2.22,9.737,6.661C685.823,110.361,681.658,110.869,673.327,111.887z"/>
<path fill-rule="evenodd" clip-rule="evenodd" fill="#40291A" d="M660.45,162.363c0.79-1.538,1.821-3.208,3.095-5.013
	c4.152,3.101,6.228,4.651,6.228,4.651C663.557,162.243,660.45,162.363,660.45,162.363z"/>
<path fill-rule="evenodd" clip-rule="evenodd" fill="#40291A" d="M669.772,162c-1.314,0.051-1.971,0.077-1.971,0.077
	c26.605,11.182,39.909,16.772,39.909,16.772C682.417,167.618,669.772,162,669.772,162z"/>
<path fill-rule="evenodd" clip-rule="evenodd" fill="#40291A" d="M736.006,221.591c31.01,15.204,51.131,23.244,60.376,24.119
	c0,0,5.896-0.342,17.688-1.021c6.722,2.24,10.087,3.361,10.087,3.361c-7.895,4.775-11.841,7.164-11.841,7.164
	C792.736,249.75,767.301,238.544,736.006,221.591z"/>
<path fill-rule="evenodd" clip-rule="evenodd" fill="#40291A" d="M831.318,193.303c-8.024-0.499-23.201-6.419-45.536-17.761
	c19.1,8.537,32.576,12.533,40.417,11.987c9.99-2.826,14.986-4.24,14.986-4.24C834.606,189.965,831.318,193.303,831.318,193.303z"/>
<path fill-rule="evenodd" clip-rule="evenodd" fill="#40291A" d="M819.148,150.764c-3.459-4.224-9.771-9.171-18.934-14.839
	c14.547,3.265,21.818,4.897,21.818,4.897c6.018,2.73,9.029,4.093,9.029,4.093C823.119,148.815,819.148,150.764,819.148,150.764z"/>
<path fill-rule="evenodd" clip-rule="evenodd" fill="#40291A" d="M867.936,120.979c-2.719-2.726-6.062-4.742-9.737-5.872
	c0.35,5.815,0.513,8.321,0.492,7.518C864.852,121.528,867.936,120.979,867.936,120.979z"/>
<path fill-rule="evenodd" clip-rule="evenodd" fill="#40291A" d="M883.19,169.44c-2.287-1.802-3.435-2.704-3.435-2.704
	c8.752,1.951,13.127,2.926,13.127,2.926c-1.294,6.431-1.941,9.647-1.941,9.647C885.773,172.73,883.19,169.44,883.19,169.44z"/>
<path fill-rule="evenodd" clip-rule="evenodd" fill="#BD8952" d="M851.533,145.558c-2.832-0.525-5.55,3.5-6.066,8.988
	c-0.518,5.487,1.358,10.362,4.19,10.885c2.832,0.525,5.55-3.5,6.067-8.988C856.241,150.955,854.365,146.081,851.533,145.558z"/>
<path fill-rule="evenodd" clip-rule="evenodd" fill="#BD8952" d="M846.203,259.563c2.295,0,4.17-3.544,4.17-7.892
	s-1.875-7.896-4.17-7.896c-2.291,0-4.167,3.548-4.167,7.896S843.912,259.563,846.203,259.563z"/>
<path fill-rule="evenodd" clip-rule="evenodd" fill="#BD8952" d="M893.659,179.204c13.225-2.063,20.158,5.438,20.801,22.502
	c0.415,10.941-1.383,28.753-8.41,37.396c-2.376,2.919-5.196,4.623-8.46,5.111c-15.616,2.323-20.495-13.171-22.225-25.478
	C872.948,201.508,876.993,181.703,893.659,179.204L893.659,179.204z M893.737,181.833c-15.32,2.297-19.035,20.498-16.81,36.33
	c1.587,11.308,6.071,25.547,20.423,23.411c2.998-0.446,5.591-2.012,7.771-4.696c6.457-7.943,8.109-24.312,7.731-34.367
	C912.259,186.832,905.887,179.937,893.737,181.833z"/>
<path fill-rule="evenodd" clip-rule="evenodd" fill="#BD8952" d="M893.969,189.66c8.96-1.398,13.664,3.687,14.1,15.252
	c0.28,7.416-0.94,19.491-5.701,25.348c-1.611,1.979-3.523,3.133-5.733,3.462c-10.583,1.575-13.892-8.927-15.063-17.269
	C879.931,204.778,882.669,191.354,893.969,189.66L893.969,189.66z M894.042,192.062c-10.066,1.509-12.508,13.468-11.047,23.869
	c1.045,7.43,3.991,16.785,13.419,15.383c1.97-0.293,3.675-1.322,5.106-3.086c4.24-5.218,5.331-15.973,5.078-22.579
	C906.208,195.346,902.025,190.817,894.042,192.062z"/>
<path fill-rule="evenodd" clip-rule="evenodd" fill="#BD8952" d="M894.348,202.353c3.788-0.59,5.777,1.56,5.961,6.451
	c0.118,3.137-0.399,8.244-2.413,10.72c-0.68,0.838-1.489,1.327-2.425,1.467c-4.477,0.666-5.876-3.776-6.368-7.304
	C888.406,208.747,889.566,203.071,894.348,202.353z"/>
<path fill-rule="evenodd" clip-rule="evenodd" fill="#BD8952" d="M873.97,157.354c1.9-26.554-16.057-42.662-32.015-32.019
	c-16.374,10.915-20.089,39.488-9.392,56.382C848.481,206.872,872.595,182.773,873.97,157.354L873.97,157.354z M872.358,157.341
	c-1.282,23.688-23.751,46.145-38.587,22.705c-9.965-15.745-6.506-42.371,8.749-52.543
	C857.396,117.587,874.129,132.598,872.358,157.341z"/>
<path fill-rule="evenodd" clip-rule="evenodd" fill="#BD8952" d="M847.505,225.42c-7.19-0.885-13.64,7.402-19.197,22.862
	c-3.329,16.823-0.46,26.076,8.605,27.763c6.291,1.16,12.757-0.667,17.513-4.946c4.753-4.274,7.252-10.516,6.764-16.89
	c0.15-1.789,0.098-4.118-0.163-6.985c-2.019-3.391-2.979-7.062-3.427-10.959C856.912,230.268,856.111,226.478,847.505,225.42
	L847.505,225.42z M847.191,227.78c7.805,0.96,8.533,4.4,9.159,9.839c0.403,3.538,1.278,6.866,3.104,9.944
	c0.236,2.6,0.285,4.712,0.146,6.333c0.448,5.784-1.822,11.446-6.132,15.326c-4.312,3.879-10.181,5.536-15.89,4.486
	c-8.223-1.53-10.823-9.924-7.804-25.187C834.817,234.496,840.669,226.979,847.191,227.78z"/>
<path fill-rule="evenodd" clip-rule="evenodd" fill="#BD8952" d="M866.454,157.299c1.298-18.117-10.954-29.11-21.847-21.847
	c-11.169,7.446-13.704,26.943-6.408,38.473C849.063,191.09,865.519,174.645,866.454,157.299L866.454,157.299z M864.852,157.289
	c-0.843,15.623-15.662,30.434-25.448,14.972c-6.571-10.382-4.288-27.942,5.771-34.649
	C854.983,131.07,866.019,140.97,864.852,157.289z"/>
<path fill-rule="evenodd" clip-rule="evenodd" fill="#BD8952" d="M833.771,180.046c-6.062-9.581-7.157-23.193-3.646-34.672
	l-1.998,0.98c-3.116,11.91-1.753,25.59,4.436,35.362c0.777,1.229,1.575,2.34,2.385,3.336l2.164-0.61
	C835.965,183.206,834.851,181.748,833.771,180.046z"/>
<path fill-rule="evenodd" clip-rule="evenodd" fill="#BD8952" d="M833.972,286.321c-12.31-2.289-16.504-14.485-12.586-36.595
	l-1.574,0.952c-3.85,22.819,0.663,35.427,13.537,37.82c9.399,1.731,19.071-0.999,26.176-7.392
	c7.104-6.39,10.84-15.721,10.107-25.248c0.224-2.671,0.146-6.152-0.244-10.437c-3.015-5.07-4.451-10.555-5.118-16.384
	c-1.025-8.958-2.227-14.628-15.088-16.209c-10.727-1.318-20.35,11.009-28.638,34.017l1.298,0.434
	c0.008-0.019,0.008-0.037,0.012-0.055c7.825-21.771,16.907-33.441,27.035-32.194c12.117,1.489,13.248,6.83,14.217,15.271
	c0.627,5.491,1.981,10.659,4.822,15.436c0.365,4.036,0.443,7.314,0.228,9.833c0.691,8.979-2.828,17.768-9.521,23.79
	C851.936,285.381,842.83,287.955,833.972,286.321z"/>
<g>
	<path fill-rule="evenodd" clip-rule="evenodd" fill="#006633" d="M818.753,85.471l0.028,0.104l1.904,0.179
		c7.149,0.675,14.124-2.513,18.291-8.362c4.166-5.849,4.902-13.479,1.924-20.018l-0.789-1.74l-1.912,0.083
		c-6.714,0.299-12.915,3.672-16.813,9.143c-1.184,1.665-2.116,3.465-2.787,5.347c-2.645-5.66-8.061-9.658-14.294-10.478
		l-1.758-0.234l-0.977,1.481c-3.504,5.306-4.184,11.987-1.827,17.894c2.352,5.898,7.462,10.278,13.651,11.703l1.725,0.396
		l1.115-1.377C817.264,88.319,818.106,86.931,818.753,85.471z"/>
	<g>
		<path fill-rule="evenodd" clip-rule="evenodd" fill="#34994A" d="M803.93,62.538c5.6,0.738,10.359,4.439,12.451,9.68
			c2.096,5.241,1.196,11.204-2.352,15.594c-5.286-1.216-9.644-4.962-11.654-9.991C800.361,72.771,800.943,67.066,803.93,62.538z"/>
		<path fill-rule="evenodd" clip-rule="evenodd" fill="#34994A" d="M838.325,58.548c2.556,5.62,1.925,12.174-1.656,17.202
			c-3.581,5.025-9.57,7.764-15.714,7.182c-1.665-5.605-0.655-11.664,2.738-16.427S832.482,58.808,838.325,58.548z"/>
	</g>
	<path fill-rule="evenodd" clip-rule="evenodd" fill="#006633" d="M821.483,84.608c-1.433-1.426-2.152-2.14-2.152-2.14
		c2.535-3.188,5.444-6.295,8.716-9.318C825.707,79.225,823.518,83.042,821.483,84.608z"/>
	<path fill-rule="evenodd" clip-rule="evenodd" fill="#006633" d="M814.232,88.317c0.98-0.617,1.473-0.924,1.473-0.924
		c-2.689-3.273-4.951-6.614-6.787-10.022C809.903,81.992,811.673,85.642,814.232,88.317z"/>
</g>
<g>
	<path fill-rule="evenodd" clip-rule="evenodd" fill="#006633" d="M236.808,542.092c1.566,0.916,3.589,1.876,4.905,2.568
		l1.036,0.541l0.205,1.155c2.375,13.347-4.209,26.685-16.248,32.918l-1.88,0.973l-1.192-1.745
		c-4.155-6.096-5.528-13.668-3.776-20.834c1.748-7.148,6.478-13.257,12.959-16.739L236.808,542.092z"/>
	<path fill-rule="evenodd" clip-rule="evenodd" fill="#34994A" d="M233.947,543.033c-5.9,3.17-10.179,8.695-11.77,15.202
		c-1.589,6.51-0.344,13.387,3.432,18.921c11.108-5.754,17.183-18.062,14.994-30.38C236.116,544.424,233.898,543.175,233.947,543.033
		z"/>
	<path fill-rule="evenodd" clip-rule="evenodd" fill="#006633" d="M238.482,545.653c-0.525-0.276-1.005-0.537-1.44-0.769
		c-0.112,0.195-0.222,0.398-0.333,0.606c-1.683,3.218-3.257,8.187-4.726,14.917c3.135-4.676,5.243-9.326,6.323-13.949
		C238.37,546.19,238.427,545.921,238.482,545.653z"/>
</g>
<g>
	<path fill-rule="evenodd" clip-rule="evenodd" fill="#006633" d="M248.036,534.939c-0.623-1.704-1.569-3.735-2.143-5.103
		l-0.452-1.082l0.578-1.018c6.683-11.796,20.259-17.875,33.508-15.002l2.067,0.447l-0.197,2.108
		c-0.686,7.344-4.456,14.054-10.372,18.457c-5.904,4.39-13.444,6.083-20.658,4.63L248.036,534.939z"/>
	<path fill-rule="evenodd" clip-rule="evenodd" fill="#34994A" d="M250.837,536.038c6.569,1.323,13.387-0.207,18.762-4.207
		c5.375-4,8.799-10.091,9.422-16.76c-12.228-2.653-24.756,2.958-30.924,13.843C250.054,533.584,250.968,535.96,250.837,536.038z"/>
	<path fill-rule="evenodd" clip-rule="evenodd" fill="#006633" d="M249.017,531.126c0.228,0.55,0.434,1.054,0.619,1.514
		c0.209-0.077,0.425-0.167,0.645-0.256c3.347-1.404,7.729-4.228,13.151-8.476c-5.396,1.603-9.985,3.837-13.766,6.714
		C249.446,530.789,249.23,530.956,249.017,531.126z"/>
</g>
<path fill-rule="evenodd" clip-rule="evenodd" fill="#40291A" d="M256.331,487.78c-16.264,21.15-30.971,43.489-43.976,66.788
	l-0.045,0.078l-0.049,0.077c-11.308,17.765-29.84,29.671-50.696,32.58c-20.766,2.894-42.002-3.544-57.67-17.48l-0.057-0.045
	l-0.051-0.053c-7.896-7.715-13.151-17.68-15.063-28.552c-3.465-19.719,7.879-38.64,10.6-57.888
	c1.056-7.468,1.599-15.006,1.624-22.548c0.092-27.423,2.401-44.763,27.533-60.441c4.519-2.818,9.403-5.011,14.518-6.506
	c29.37-8.59,69.545,3.878,74.487,37.671c8.932-7.194,20.805-9.705,31.889-6.734c4.905,1.314,9.475,3.648,13.412,6.856
	c16.188,13.188,14.188,25.966,4.254,42.34C264.005,478.925,260.41,483.578,256.331,487.78z"/>
<path fill-rule="evenodd" clip-rule="evenodd" fill="#40291A" d="M260.137,491.063c-16.046,20.887-30.581,42.937-43.4,65.946
	l-0.11,0.2l-0.12,0.19c-12.014,19.08-31.942,31.763-54.248,34.872c-22.111,3.08-44.997-3.891-61.694-18.693l-0.146-0.13l-0.14-0.139
	c-8.639-8.451-14.404-19.36-16.496-31.267c-0.761-4.333-0.895-8.731-0.545-13.114c1.294-16.153,8.893-30.591,11.118-46.346
	c1.023-7.241,1.55-14.551,1.575-21.863c0.096-29.405,3.259-48.067,29.893-64.681c4.907-3.06,10.217-5.444,15.768-7.065
	c29.826-8.724,69.427,2.773,79.187,34.328c9.098-4.844,19.798-6.128,29.897-3.422c5.584,1.496,10.799,4.159,15.281,7.811
	c18.158,14.795,16.675,30.208,5.375,48.836C268.151,481.768,264.392,486.648,260.137,491.063z"/>
<path fill-rule="evenodd" clip-rule="evenodd" fill="#40291A" d="M256.845,488.223c-16.235,21.118-30.916,43.416-43.898,66.675
	l-0.053,0.098l-0.059,0.09c-11.416,17.932-30.123,29.956-51.174,32.89c-20.966,2.921-42.403-3.577-58.217-17.644l-0.065-0.057
	l-0.065-0.065c-7.998-7.816-13.322-17.903-15.257-28.914c-3.505-19.946,7.855-38.717,10.596-58.105
	c1.05-7.438,1.591-14.946,1.618-22.457c0.089-27.663,2.499-45.199,27.85-61.013c4.574-2.853,9.514-5.068,14.688-6.582
	c29.441-8.612,69.438,3.723,75.167,37.081c8.986-6.781,20.658-9.074,31.578-6.148c4.997,1.338,9.652,3.717,13.664,6.984
	c16.465,13.414,14.516,26.554,4.405,43.219C264.564,479.31,260.945,483.996,256.845,488.223z"/>
<path fill-rule="evenodd" clip-rule="evenodd" fill="#E8AF72" d="M219.305,433.981c8.087-6.583,18.956-9.019,29.267-6.258
	c4.569,1.225,8.724,3.387,12.253,6.264c15.112,12.313,12.498,23.596,3.562,38.324c-2.936,4.838-6.423,9.349-10.404,13.432
	c-16.408,21.324-31.226,43.821-44.34,67.311c-10.818,17.001-28.55,28.394-48.505,31.173c-19.957,2.783-40.126-3.332-55.182-16.724
	c-7.622-7.446-12.423-16.895-14.174-26.867c-3.314-18.848,7.766-36.752,10.616-56.917c1.074-7.607,1.627-15.283,1.654-22.972
	c0.079-25.014,1.314-42.376,26.07-57.816c4.224-2.635,8.832-4.724,13.747-6.163c28.762-8.413,66.616,4.25,70.654,35.936
	C215.464,440.084,213.673,438.565,219.305,433.981z"/>
<path fill-rule="evenodd" clip-rule="evenodd" fill="#BD8952" d="M241.629,475.031l-0.584,0.757
	c-16.771,21.786-31.938,44.795-45.361,68.787l-0.047,0.086l-0.053,0.081c-8.28,12.716-21.667,21.224-36.701,23.319
	c-14.909,2.079-30.361-2.526-41.705-12.423l-0.077-0.069l-0.073-0.073c-4.802-4.825-7.992-10.974-9.17-17.684
	c-0.325-1.848-0.415-3.723-0.342-5.595c0.261-6.482,2.338-13.131,4.23-19.308c2.72-8.866,5.511-17.696,6.813-26.906
	c1.18-8.348,1.789-16.774,1.815-25.204c0.065-20.068-0.375-32.318,18.386-44.018c3.017-1.882,6.278-3.349,9.692-4.346
	c17.672-5.17,47.081,0.382,49.878,22.331c0.118,0.928,0.187,1.857,0.246,2.789c0.452,7.263,4.15,13.267,11.21,15.703
	c6.804,2.344,13.491-0.114,18.294-5.19c0.482-0.508,0.985-0.984,1.528-1.426c4.112-3.349,9.617-4.523,14.738-3.152
	c4.285,1.147,8.587,3.435,9.816,8.041c2.107,7.918-6.728,17.543-11.867,22.815L241.629,475.031L241.629,475.031z M119.091,553.445
	c10.762,9.388,25.234,13.709,39.392,11.735c14.205-1.981,26.847-10.021,34.662-22.029c13.493-24.113,28.744-47.237,45.593-69.137
	l0.688-0.893l0.788-0.806c7.235-7.418,19.617-21.666,3.381-26.013c-4.224-1.131-8.756-0.165-12.148,2.596
	c-0.454,0.371-0.849,0.745-1.251,1.17c-5.481,5.792-13.295,8.718-21.354,5.941c-8.354-2.879-12.657-10.038-13.169-18.274
	c-0.053-0.875-0.116-1.729-0.228-2.6c-2.542-19.94-30.247-24.567-46.175-19.908c-3.16,0.926-6.175,2.279-8.968,4.022
	c-17.601,10.978-16.954,22.194-17.017,41.561c-0.026,8.563-0.645,17.123-1.843,25.6c-1.336,9.458-4.126,18.268-6.911,27.354
	c-1.778,5.799-3.861,12.488-4.104,18.571c-0.067,1.664,0.01,3.328,0.299,4.977C111.799,543.435,114.711,549.042,119.091,553.445z"/>
<path fill-rule="evenodd" clip-rule="evenodd" fill="#BD8952" d="M212.119,485.684c-10.686,15.792-21.222,31.633-30.855,48.1
	c-8.848,15.125-27.73,20.951-43.673,13.843c-4.728-2.107-9.922-5.07-11.578-10.331c-1.471-4.676,0.271-10.291,1.562-14.84
	c2.262-7.976,4.769-15.971,6.661-24.035c1.99-8.464,3.044-16.775,3.624-25.444c0.287-4.285,0.22-8.681,0.234-12.976
	c0.017-5.099-0.065-11.06,0.834-16.062l0.02-0.11l0.476-1.841l0.022-0.073c0.529-1.672,1.331-3.227,2.378-4.632
	c3.817-5.129,10.374-7.672,16.532-8.463c6.588-0.845,15.971,0.081,20.83,5.147c1.52,1.585,1.683,4.74,1.937,6.842
	c0.371,3.064,0.845,6.006,1.803,8.954c3.001,9.241,9.621,15.027,18.478,18.675c2.693,1.111,5.334,1.839,8.113,2.657
	c2.23,0.655,4.761,1.446,5.918,3.66C217.28,478.28,214.035,482.854,212.119,485.684L212.119,485.684z M209.643,484.008
	c7.377-10.901,1.91-8.154-9.379-12.805c-25.356-10.445-20.721-32.546-23.236-35.168c-6.964-7.261-30.603-6.281-34.727,6.779
	l-0.429,1.654c-1.261,7.003-0.507,20.486-1.027,28.709c-1.457,21.305-4.739,30.167-10.39,50.098
	c-3.083,10.859-4.202,16.02,8.355,21.622c14.565,6.494,31.797,1.181,39.872-12.622C188.537,515.424,198.726,500.137,209.643,484.008
	z"/>
<path fill-rule="evenodd" clip-rule="evenodd" fill="#40291A" d="M239.898,548.701c-5.367-3.097-10.632-6.592-15.782-10.034
	l-1.776-1.188l0.694-2.021c2.844-8.297,8.866-16.973,14.144-23.906l3.937-5.171l1.017,6.421c1.374,8.675,4.407,16.886,8.632,24.568
	l0.889,1.615l-1.146,1.444c-2.167,2.738-4.752,5.852-7.489,8.036l-1.479,1.185L239.898,548.701z"/>
<path fill-rule="evenodd" clip-rule="evenodd" fill="#B86C32" d="M248.329,538.708c-2.816,3.556-5.164,6.087-7.042,7.589
	c-3.725-2.148-8.932-5.461-15.627-9.937c2.118-6.177,6.693-13.884,13.729-23.125C240.754,521.862,243.733,530.354,248.329,538.708z"
	/>
<path fill-rule="evenodd" clip-rule="evenodd" fill="#BD8952" d="M165.966,486.832c-0.91,2.75-1.166,9.033-1.862,12.561
	c-0.578,2.93-2.208,7.397-2.238,10.12c1.28-0.936,7.088-10.774,8.563-13.106c2.505-3.963,2.047-3.694-1.031-6.836
	C169.032,489.198,166.467,486.396,165.966,486.832z"/>
<g>
	<path fill-rule="evenodd" clip-rule="evenodd" fill="#006633" d="M212.001,713.488c1.437-6.254,4.102-12.748,9.347-16.483
		l2.388-1.705l1.396,2.584c6.545,12.125,2.329,26.469-5.304,37.023l-3.607,4.988l-0.411-2.38c-1.074,0.646-2.37,0.851-3.601,0.565
		l-0.177-0.045l-0.171-0.064c-14.18-5.53-16.874-17.07-12.479-30.786l0.977-3.044l2.775,1.587
		C206.632,707.73,209.625,710.387,212.001,713.488z"/>
	<g>
		<path fill-rule="evenodd" clip-rule="evenodd" fill="#34994A" d="M215.559,733.588c-0.063,0.643-0.405,1.233-0.932,1.607
			c-0.529,0.378-1.194,0.509-1.827,0.362c-11.727-4.574-15.381-13.766-10.952-27.58
			C210.947,713.182,216.273,723.127,215.559,733.588z"/>
		<path fill-rule="evenodd" clip-rule="evenodd" fill="#34994A" d="M213.867,717.394c2.752,3.36,2.876,10.286,3.861,15.995
			c7.748-10.718,10.822-23.719,5.123-34.277C218.381,702.297,215.386,708.389,213.867,717.394z"/>
	</g>
	<path fill-rule="evenodd" clip-rule="evenodd" fill="#40291A" d="M80.295,768.818c-2.493-10.994-3.74-16.491-3.74-16.491
		c97.984,1.777,171.741,0.203,221.269-4.729c-0.944,13.766-1.418,20.646-1.418,20.646c-2.598,2.323-3.898,3.486-3.898,3.486
		c2.14,2.991,3.21,4.488,3.21,4.488c0.053,15.287,0.079,22.929,0.079,22.929c-2.651,2.572-3.977,3.862-3.977,3.862
		c2.756,2.359,4.136,3.544,4.136,3.544c-0.051,11.661-0.077,17.492-0.077,17.492c-2.98,2.047-4.47,3.072-4.47,3.072
		c2.718,2.547,4.077,3.821,4.077,3.821c0.014,2.575,0.022,3.861,0.022,3.861c-2.403,3.938-3.605,5.908-3.605,5.908
		c1.55,3.414,2.326,5.118,2.326,5.118c-2.417,3.207-3.625,4.806-3.625,4.806c1.29,3.915,1.935,5.872,1.935,5.872
		c-1.481,5.725-2.032,8.459-1.654,8.194c0.519,4.501,0.86,6.783,1.023,6.853c-80.798,9.351-155.829,12.984-225.083,10.893
		c0.507-13.672,2.818-25.28,6.932-34.826c-4.342-14.066-3.003-28.121,4.018-42.159c-3.455-0.395-4.95-0.472-4.492-0.236
		c-0.72-9.448-0.065-19.454,1.969-30.025C79.101,770.735,80.781,768.606,80.295,768.818z"/>
	<path fill-rule="evenodd" clip-rule="evenodd" fill="#40291A" d="M82.531,767.597c0.999,1.575-0.464,3.243-1.42,4.439
		c-1.157,1.444-2.366,2.86-3.577,4.265c-1.631,8.707-2.415,17.606-1.955,26.46c0.826,0.078,1.654,0.171,2.474,0.265l3.479,0.395
		l-1.566,3.134c-6.499,12.992-8.171,26.412-3.87,40.34l0.269,0.862l-0.358,0.83c-4.226,9.807-6.044,20.817-6.622,31.486
		c73.234,2.059,146.863-2.327,219.619-10.648c-0.175-1.245-0.326-2.498-0.472-3.752c-0.409-1.065-0.091-2.474,0.136-3.568
		c0.385-1.843,0.851-3.687,1.32-5.514c-0.571-1.729-1.139-3.458-1.709-5.188l-0.398-1.217l0.765-1.021
		c0.914-1.217,1.829-2.425,2.747-3.638c-0.578-1.266-1.143-2.543-1.717-3.805l-0.531-1.172l0.661-1.103
		c1.07-1.782,2.167-3.557,3.253-5.33c-0.004-0.704-0.008-1.408-0.012-2.112c-1.103-1.033-2.208-2.066-3.31-3.101l-2.204-2.062
		l2.472-1.729c1.139-0.798,2.287-1.579,3.436-2.364c0.029-5.025,0.043-10.051,0.063-15.071c-1.092-0.94-2.185-1.872-3.277-2.812
		l-2.045-1.754l1.937-1.864c1.076-1.041,2.15-2.087,3.225-3.129c-0.041-7.031-0.047-14.066-0.069-21.098
		c-0.928-1.281-1.837-2.584-2.757-3.869l-1.284-1.795l1.648-1.457c1.052-0.936,2.102-1.88,3.153-2.819
		c0.391-5.587,0.769-11.178,1.149-16.765c-29.745,2.849-59.922,3.976-89.772,4.61c-41.898,0.896-83.875,0.643-125.779-0.098
		C80.596,759.084,81.564,763.341,82.531,767.597z"/>
	<path fill-rule="evenodd" clip-rule="evenodd" fill="#B86C32" d="M286.745,867.659c-0.063-0.513-0.124-1.025-0.183-1.538
		c-0.456-1.449-0.165-2.975,0.138-4.428c0.352-1.688,0.767-3.36,1.194-5.033c-0.511-1.542-1.015-3.084-1.524-4.626l-0.729-2.214
		l1.396-1.859c0.675-0.899,1.353-1.795,2.03-2.694c-0.409-0.903-0.812-1.811-1.223-2.714l-0.968-2.128l1.204-2.01
		c0.977-1.628,1.972-3.239,2.962-4.858c0-0.224-0.002-0.452-0.002-0.676c-0.893-0.838-1.789-1.672-2.682-2.507l-4.008-3.755
		l4.5-3.154c0.857-0.598,1.719-1.188,2.584-1.777c0.022-4.362,0.037-8.729,0.055-13.091c-0.859-0.736-1.715-1.469-2.574-2.205
		l-3.725-3.19l3.532-3.401c0.871-0.838,1.737-1.685,2.604-2.526c-0.037-6.531-0.042-13.066-0.063-19.601
		c-0.797-1.111-1.587-2.234-2.384-3.349l-2.336-3.271l3.003-2.657c0.851-0.749,1.693-1.51,2.537-2.267
		c0.317-4.529,0.625-9.062,0.934-13.591c-29.104,2.698-58.352,3.772-87.563,4.398c-41.095,0.879-82.202,0.651-123.297-0.053
		c0.755,3.324,1.51,6.649,2.265,9.974c1.265,2.393-0.244,4.565-1.744,6.437c-1.062,1.327-2.161,2.621-3.268,3.906
		c-1.434,7.821-2.167,15.792-1.9,23.743c0.256,0.028,0.513,0.057,0.769,0.085l6.333,0.725l-2.85,5.701
		c-6.246,12.491-7.896,25.41-3.748,38.851l0.486,1.566l-0.651,1.514c-3.874,8.984-5.656,18.97-6.335,28.735
		C143.365,880.024,215.36,875.751,286.745,867.659z"/>
	<path fill-rule="evenodd" clip-rule="evenodd" fill="#40291A" d="M232.979,731.261c-3.912,6.848-7.771,13.741-11.458,20.715
		l-0.853,1.615l-1.827,0.033c-10.107,0.175-20.213,0.378-30.316,0.631l-16.512,0.402l15.247-6.352
		c10.47-4.362,28.284-12.439,35.384-21.651l1.206-1.562l1.929,0.436c1.733,0.395,3.471,0.789,5.205,1.184l4.065,0.928
		L232.979,731.261z"/>
	<path fill-rule="evenodd" clip-rule="evenodd" fill="#B86C32" d="M230.295,729.727c-4.575,8.008-8.41,14.941-11.509,20.805
		c-10.979,0.191-21.092,0.403-30.339,0.631c18.87-7.865,31.085-15.401,36.646-22.62C228.56,729.333,230.295,729.727,230.295,729.727
		z"/>
	<path fill-rule="evenodd" clip-rule="evenodd" fill="#40291A" d="M201.312,788.781c14.551,3.23,21.826,4.846,21.826,4.846
		s-20.016-0.366-60.046-1.103C188.571,790.03,201.312,788.781,201.312,788.781z"/>
	<path fill-rule="evenodd" clip-rule="evenodd" fill="#40291A" d="M73.756,847.619c-0.236,0.562-0.356,0.846-0.356,0.846
		c42.987,0.005,64.481,0.009,64.481,0.009c-11.926-3.153-17.887-4.729-17.887-4.729C89.17,846.325,73.756,847.619,73.756,847.619z"
		/>
	<path fill-rule="evenodd" clip-rule="evenodd" fill="#40291A" d="M291.904,840.709c0.444,0.977,0.666,1.465,0.666,1.465
		c-34.583,1.151-51.874,1.725-51.874,1.725c16.758-3.043,25.139-4.569,25.139-4.569C283.212,840.25,291.904,840.709,291.904,840.709
		z"/>
	<path fill-rule="evenodd" clip-rule="evenodd" fill="#40291A" d="M129.199,813.199c31.465,1.103,47.198,1.656,47.198,1.656
		c-30.89,0.207-46.333,0.313-46.333,0.313c-2.049,1.367-3.072,2.051-3.072,2.051c-3.835,0.158-5.754,0.235-5.754,0.235
		c-1.471-0.891-2.207-1.339-2.207-1.339c-23.901-1.106-35.852-1.655-35.852-1.655c23.694-0.631,35.539-0.948,35.539-0.948
		c1.788-1.103,2.682-1.652,2.682-1.652c3.467-0.158,5.2-0.236,5.2-0.236C128.472,812.54,129.339,813.064,129.199,813.199z"/>
	<path fill-rule="evenodd" clip-rule="evenodd" fill="#40291A" d="M292.508,771.731c1.092-0.98,1.64-1.469,1.64-1.469
		c-40.301,0.989-60.453,1.485-60.453,1.485c39.809,0.826,59.713,1.241,59.713,1.241C292.81,772.151,292.508,771.731,292.508,771.731
		z"/>
	<path fill-rule="evenodd" clip-rule="evenodd" fill="#40291A" d="M80.295,768.818c-0.729,1.123-1.091,1.685-1.091,1.685
		c63.245,2.287,94.869,3.431,94.869,3.431C111.555,770.519,80.295,768.818,80.295,768.818z"/>
	<path fill-rule="evenodd" clip-rule="evenodd" fill="#006633" d="M217.59,731.741c0.531-0.439,1.042-0.883,1.534-1.33
		c1.437-6.136,2.197-11.585,2.281-16.346C218.586,720.547,217.317,726.435,217.59,731.741z"/>
	<path fill-rule="evenodd" clip-rule="evenodd" fill="#006633" d="M214.715,733.955c-1.072-3.694-2.875-7.104-5.41-10.233
		c0.954,3.674,2.431,7.316,4.429,10.93C214.066,734.418,214.392,734.187,214.715,733.955z"/>
</g>
<g>
	<path fill-rule="evenodd" clip-rule="evenodd" fill="#40291A" d="M1055.411,340.667c3.69-12.163,19.741-19.03,30.855-22.588
		c20.496-6.561,43.979-8.732,65.437-8.732s44.943,2.172,65.439,8.732c11.081,3.548,27.053,10.379,30.814,22.461l0.081,0.259
		l0.046,0.269c0.263,1.54,0.65,3.072,0.674,4.645c0.046,3.059,0.112,6.12,0.162,9.181c1.532,91.205,0.851,182.427,0.626,273.643
		l-0.007,3.104l-2.114,2.274c-23.855,25.669-58.327,38.749-93.209,35.344c-27.958-2.727-53.893-15.843-72.662-36.743
		c-15.526-17.294-13.731-23.595-15.845-45.148c-4.24-43.271-6.62-86.695-8.044-130.144c-1.206-36.788-1.681-73.594-2.979-110.264
		c-0.125-1.949,0.315-3.788,0.593-5.694l0.043-0.304L1055.411,340.667z"/>
	<path fill-rule="evenodd" clip-rule="evenodd" fill="#40291A" d="M1244.061,341.754c0.201,1.176,0.61,2.878,0.618,4.019
		c0.056,3.062,0.109,6.126,0.16,9.188c1.531,91.196,0.859,182.361,0.623,273.564l-0.003,1.506l-1.027,1.104
		c-22.983,24.746-56.204,37.343-89.818,34.062c-26.954-2.63-51.942-15.275-70.02-35.41c-14.841-16.526-12.799-22.183-14.821-42.819
		c-4.236-43.218-6.607-86.485-8.028-129.879c-1.205-36.79-1.681-73.606-2.983-110.389c-0.091-1.434,0.344-3.386,0.557-4.847
		c3.235-10.666,19.067-16.965,28.193-19.886c19.911-6.373,43.373-8.538,64.192-8.538s44.284,2.166,64.193,8.538
		C1224.996,324.878,1240.757,331.147,1244.061,341.754z"/>
	<path fill-rule="evenodd" clip-rule="evenodd" fill="#B86C32" d="M1062.583,345.807c117.749,3.626,178.243-0.001,178.243-0.001
		c1.825,98.802,1.006,196.665,0.785,282.709c-22.167,23.863-54.205,36.013-86.625,32.849c-26.204-2.559-50.232-14.889-67.529-34.151
		c-14.053-15.651-11.864-20.352-13.851-40.619C1064.499,493.674,1065.025,414.093,1062.583,345.807z"/>
	<path fill-rule="evenodd" clip-rule="evenodd" fill="#40291A" d="M1151.703,382.257c53.452,0,97.047-16.374,97.047-36.45
		c0-20.077-43.595-36.451-97.047-36.451c-53.449,0-97.044,16.374-97.044,36.451C1054.659,365.884,1098.254,382.257,1151.703,382.257
		z"/>
	<path fill-rule="evenodd" clip-rule="evenodd" fill="#40291A" d="M1151.703,378.51c51.387,0,93.298-14.691,93.298-32.703
		c0-18.013-41.911-32.703-93.298-32.703c-51.385,0-93.295,14.69-93.295,32.703C1058.408,363.818,1100.318,378.51,1151.703,378.51z"
		/>
	<path fill-rule="evenodd" clip-rule="evenodd" fill="#E8AF72" d="M1151.703,374.334c49.086,0,89.123-12.814,89.123-28.527
		c0-15.713-40.037-28.527-89.123-28.527c-49.085,0-89.12,12.814-89.12,28.527C1062.583,361.52,1102.618,374.334,1151.703,374.334z"
		/>
	<path fill-rule="evenodd" clip-rule="evenodd" fill="#BD8952" d="M1151.703,351.512c9.817,0,17.826-2.562,17.826-5.706
		c0-3.143-8.009-5.706-17.826-5.706s-17.824,2.563-17.824,5.706C1133.879,348.949,1141.886,351.512,1151.703,351.512z"/>
	<path fill-rule="evenodd" clip-rule="evenodd" fill="#BD8952" d="M1151.703,326.187c30.855,0,55.866,8.784,55.866,19.621
		c0,10.835-25.011,19.619-55.866,19.619c-30.853,0-55.863-8.784-55.863-19.619C1095.84,334.97,1120.851,326.187,1151.703,326.187
		L1151.703,326.187z M1151.703,328.744c-29.441,0-53.308,7.639-53.308,17.063c0,9.422,23.866,17.063,53.308,17.063
		s53.311-7.641,53.311-17.063C1205.014,336.383,1181.145,328.744,1151.703,328.744z"/>
	<path fill-rule="evenodd" clip-rule="evenodd" fill="#40291A" d="M1194.982,370.75c4.58,29.909,7.192,61.829,7.839,95.756
		c-0.005,0.228,0.114,0.44,0.31,0.554c0.196,0.116,0.438,0.116,0.634,0c0.198-0.114,0.315-0.327,0.311-0.554
		c0.864-38.781-0.44-71.033-3.91-96.756C1198.474,370.102,1196.747,370.435,1194.982,370.75z"/>
	<path fill-rule="evenodd" clip-rule="evenodd" fill="#40291A" d="M1044.17,482.479c8.281,0,15.036-12.19,15.036-27.136
		c0-14.944-6.755-27.136-15.036-27.136s-15.036,12.191-15.036,27.136C1029.134,470.289,1035.889,482.479,1044.17,482.479z"/>
	<path fill-rule="evenodd" clip-rule="evenodd" fill="#40291A" d="M1044.17,479.78c6.796,0,12.338-10.978,12.338-24.437
		c0-13.458-5.542-24.436-12.338-24.436s-12.338,10.979-12.338,24.436C1031.832,468.802,1037.374,479.78,1044.17,479.78z"/>
	<path fill-rule="evenodd" clip-rule="evenodd" fill="#40291A" d="M1046.912,436.021c0,13.169,0,26.338,0,39.509
		c21.426,6.438,42.763,14.812,63.406,23.33l3.619,1.491l-2.64,2.891c-0.549,0.601-1.099,1.198-1.653,1.793l-1.295,1.392
		l-1.757-0.726c-20.924-8.624-42.114-16.924-63.837-23.325l-3.591-4.8c0-14.821,0-29.642,0-44.463l5.274-4.996
		c33.617,1.803,67.616,9.691,99.847,19.183l2.908,0.857l-1.143,2.807c-0.292,0.721-0.59,1.438-0.898,2.153l-0.958,2.234
		l-2.332-0.683C1111.447,445.749,1078.708,438.07,1046.912,436.021z"/>
	<path fill-rule="evenodd" clip-rule="evenodd" fill="#40291A" d="M1041.908,477.575c0-14.821,0-29.642,0-44.463v-2.387l2.384,0.128
		c33.027,1.774,67.283,9.671,99.22,19.076c-0.285,0.701-0.575,1.403-0.878,2.105c-37.951-11.127-70.775-17.435-98.464-18.922
		c0,0,0,14.821,0,44.463c17.21,5.074,38.913,13.014,65.104,23.818c-0.539,0.59-1.086,1.183-1.636,1.772
		c-20.875-8.604-42.46-17.039-64.105-23.421l-1.624-0.479V477.575z"/>
	<path fill-rule="evenodd" clip-rule="evenodd" fill="#B86C32" d="M1044.17,477.575c0-29.642,0-44.463,0-44.463
		c29.592,1.59,65.04,8.683,106.353,21.281c-12.353,23.957-25.926,39.695-40.726,47.217
		C1083.373,490.696,1061.495,482.684,1044.17,477.575z"/>
	<path fill-rule="evenodd" clip-rule="evenodd" fill="#E8AF72" d="M1044.17,477.575c5.58,0,10.133-9.986,10.133-22.232
		c0-12.245-4.553-22.231-10.133-22.231s-10.133,9.986-10.133,22.231C1034.037,467.589,1038.59,477.575,1044.17,477.575z"/>
	<path fill-rule="evenodd" clip-rule="evenodd" fill="#BD8952" d="M1044.17,468.509c3.307,0,6-5.914,6-13.167
		c0-7.251-2.693-13.167-6-13.167c-3.304,0-6,5.916-6,13.167C1038.17,462.595,1040.866,468.509,1044.17,468.509z"/>
	<polygon fill-rule="evenodd" clip-rule="evenodd" fill="#40291A" points="1180.28,664.645 1175.636,665.2 1177.212,580.612 	"/>
	<polygon fill-rule="evenodd" clip-rule="evenodd" fill="#40291A" points="1120.457,403.55 1107.272,371.876 1131.475,358.497 
		1127.677,377.415 	"/>
	<polygon fill-rule="evenodd" clip-rule="evenodd" fill="#40291A" points="1161.744,378.32 1161.38,462.966 1157.662,378.743 	"/>
	<path fill-rule="evenodd" clip-rule="evenodd" fill="#40291A" d="M1229.546,642.169c-0.572-30.252-3.426-62.153-8.556-95.694
		c-0.044-0.223,0.035-0.452,0.208-0.6c0.176-0.148,0.415-0.188,0.629-0.106c0.211,0.078,0.363,0.267,0.396,0.493
		c7.444,38.068,11.644,70.072,12.597,96.012C1233.096,642.215,1231.339,642.179,1229.546,642.169z"/>
	<path fill-rule="evenodd" clip-rule="evenodd" fill="#40291A" d="M1094.06,637.027c-5.025-29.838-8.111-61.716-9.261-95.631
		c0.003-0.226-0.12-0.437-0.317-0.549c-0.199-0.112-0.44-0.109-0.633,0.011c-0.196,0.117-0.312,0.331-0.304,0.56
		c-0.287,38.787,1.496,71.019,5.347,96.686C1090.575,637.727,1092.297,637.368,1094.06,637.027z"/>
	<polygon fill-rule="evenodd" clip-rule="evenodd" fill="#40291A" points="1226.168,365.512 1213.007,355.822 1232.878,360.348 
		1233.076,380.415 	"/>
</g>
<path fill-rule="evenodd" clip-rule="evenodd" fill="#BD8952" d="M165.513,469.286c3.084,2.175,1.227,17.285,7.214,11.202
	c1.084-1.101,5.044-5.542,6.309-2.358c1.318,3.316-6.13,8.817-2.722,12.848c3.514,4.15,12.083,5.46,7.408,12.012
	c-3.147,4.406-2.775-0.456-2.995,4.898c-0.38,9.262-6.37-1.184-8.993-2.445c-1.573,3.28,0.641,18.042-5.583,7.446
	c-3.135-5.338-2.612-6.222-6.986-1.339c-4.474,4.989-5.229-1.721-4.511-5.525c2.171-11.503,3.123-5.437-5.153-12.121
	c-9.225-7.449,11.108-3.239,12.864-7.839C163.449,483.229,160.202,467.489,165.513,469.286z"/>
<path fill-rule="evenodd" clip-rule="evenodd" fill="#40291A" d="M282.242,211.303c-0.849,11.58-1.713,23.161-2.576,34.739
	l-0.106,1.404l-1.05,0.934c-10.618,9.458-24.983,13.725-39.044,11.599c-13.857-2.098-26.088-10.154-33.492-22.025
	c-9.635,9.727-22.699,15.399-36.482,15.731c-13.77,0.333-27.153-4.736-37.242-13.994c-7.866,12.289-20.113,20.964-34.334,24.302
	c-14.423,3.388-29.47,0.954-42.094-6.805l-1.691-1.04l0.037-1.983c0.078-4.258,0.283-8.517,0.6-12.765
	c-4.118-7.896-7.074-17.657-9.444-26.125l2.297-5.658c3.292-9.117,8.932-16.769,16.239-23.1l1.589-1.375l1.953,0.765
	c1.451,0.57,2.901,1.137,4.352,1.705c0.004-0.104,0.008-0.208,0.014-0.312l0.08-1.554l1.212-0.977
	c14.591-11.745,34.979-13.414,51.235-4.445c-0.846-9.778-1.721-19.552-2.61-29.321l-0.6-6.592
	c-1.825-5.648,0.977-11.829,10.333-17.063c5.237-2.928,11.129-5.115,16.842-6.909c7.764-2.437,15.778-4.303,23.755-5.896
	l2.065-0.413l1.323,1.64c1.507,1.875,3.015,3.751,4.524,5.625c1.433-1.587,2.824-3.229,4.057-4.907l1.399-1.907l2.287,0.6
	c10.809,2.845,31.327,9.066,33.386,22.298c0.441,2.84-0.026,5.595-1.05,8.177c1.788,1.111,1.493,2.84,1.381,4.592
	c-0.183,2.767-0.438,5.54-0.749,8.311c9.379-7.465,21.97-10.152,33.724-6.879l1.758,0.488l0.596,1.726
	c0.58,1.68,1.151,3.363,1.723,5.045c1.92-1.581,3.837-3.162,5.758-4.74l1.239-1.021l1.581,0.283
	c9.834,1.756,17.822,8.948,20.597,18.547l0.179,0.625c1.371-1.251,2.742-2.504,4.114-3.758l4.109-3.756l1.565,5.329
	c0.464,1.554,0.932,3.104,1.396,4.655c0.912,1.144,0.808,2.657,0.228,3.978c-0.212,0.488-0.45,0.97-0.684,1.449
	c-0.863,1.748-1.766,3.481-2.667,5.208c-3.564,6.83-7.208,13.625-10.85,20.415L282.242,211.303L282.242,211.303z M228.599,193.845
	l3.766-8.608c0.588-0.767,3.268-5.042,3.857-5.806c-1.296,0.138-9.047,1.387-10.341,1.536
	C226.13,182.183,228.348,192.626,228.599,193.845z"/>
<path fill-rule="evenodd" clip-rule="evenodd" fill="#E8AF72" d="M75.239,187.477c14.235-11.458,34.186-12.58,49.616-2.787
	c0.989,13.1,1.483,19.649,1.483,19.649c-1.271,1.717-3.247,3.4-5.931,5.043c-7.381-3.798-11.114-5.629-11.196-5.487
	c-0.197,5.241-0.297,7.859-0.297,7.859c-14.111,5.363-26.32,7.933-36.627,7.713c0.938-5.127,1.383-7.424,1.338-6.895
	c-6.97,3.115-10.455,4.671-10.455,4.671c-2.869-0.456-6.972-2.582-12.309-6.376c2.957-8.221,8.047-15.464,15.275-21.725
	c5.933,2.322,8.897,3.485,8.897,3.485C75.101,190.553,75.17,188.835,75.239,187.477z"/>
<path fill-rule="evenodd" clip-rule="evenodd" fill="#BD8952" d="M90.059,188.728c14.059-4.48,26.878-3.647,28.63,1.855
	c1.753,5.503-8.222,13.595-22.28,18.075c-14.058,4.48-26.877,3.65-28.629-1.854C66.025,201.301,76,193.208,90.059,188.728
	L90.059,188.728z M90.533,190.217c-5.662,1.807-11.916,4.612-16.559,8.38c-1.827,1.481-5.579,4.999-4.706,7.733
	c0.871,2.737,5.965,3.433,8.313,3.585c5.965,0.387,12.689-0.942,18.352-2.747c5.664-1.805,11.916-4.61,16.561-8.378
	c1.825-1.481,5.577-4.999,4.706-7.733c-0.873-2.736-5.965-3.434-8.313-3.584C102.919,187.086,96.195,188.415,90.533,190.217z"/>
<path fill-rule="evenodd" clip-rule="evenodd" fill="#E8AF72" d="M146.604,156.544c-13.234-1.498-34.965-14.152-13.488-26.164
	c8.388-4.692,21.582-8.836,39.579-12.431c4.698,5.833,7.045,8.749,7.045,8.749c3.123-3.292,5.471-6.01,7.045-8.154
	c26.794,7.043,36.198,16.793,28.212,29.25c-6.728-4.112-10.138-6.091-10.229-5.933c1.038,7.562,1.557,11.344,1.557,11.344
	c-20.304,5.359-36.342,6.867-48.118,4.525c-2.867-4.698-4.299-7.045-4.299-7.045C149.039,154.589,146.604,156.544,146.604,156.544z"
	/>
<path fill-rule="evenodd" clip-rule="evenodd" fill="#BD8952" d="M171.585,128.11c18.115,0,32.802,5.342,32.802,11.934
	s-14.687,11.933-32.802,11.933s-32.802-5.341-32.802-11.933S153.47,128.11,171.585,128.11L171.585,128.11z M171.585,130.569
	c-16.758,0-30.34,4.242-30.34,9.475c0,5.231,13.582,9.473,30.34,9.473s30.34-4.242,30.34-9.473
	C201.926,134.812,188.344,130.569,171.585,130.569z"/>
<path fill-rule="evenodd" clip-rule="evenodd" fill="#BD8952" d="M164.733,135.448c-3.705-2.026-4.187-3.151-1.445-3.374
	c6.671,2.029,10.008,3.042,10.008,3.042c6.625-2.324,9.937-3.485,9.937-3.485c2.085-0.218,2.578,0.277,1.483,1.483
	c-2.324,3.115-3.485,4.671-3.485,4.671c4.297,8.653,3.827,11.198-1.408,7.636c-3.807-3.579-6.391-3.27-7.75,0.928
	c-1.463,4.689-3.501,4.803-6.118,0.333c1.442-2.771,1.023-4.091-1.262-3.967c-2.062-0.279-2.236-1.144-0.519-2.596
	C169.472,138.433,169.657,136.875,164.733,135.448z"/>
<path fill-rule="evenodd" clip-rule="evenodd" fill="#B86C32" d="M132.163,234.734c-1.754-23.934-4.094-51.951-7.017-84.047
	c5.088,4.905,11.564,7.896,19.425,8.972c4.154,7.687,6.229,11.53,6.229,11.53c2.342-3.286,4.085-6.596,5.229-9.935
	c17.167,2.11,33.826,0.307,49.973-5.412c0.1,5.339,0.151,8.008,0.151,8.008c6.278-8.404,9.417-12.604,9.417-12.604
	c0.405-0.34,0.967-0.964,1.679-1.876c1.076-1.381,0.779-1.019,0.669,0.649c-0.793,12.146-3.579,29.458-8.352,51.943
	c-0.962,6.812-2.199,17.141-3.705,30.991c-9.164,10.649-22.408,16.919-36.454,17.257
	C155.364,250.55,141.833,244.927,132.163,234.734z"/>
<path fill-rule="evenodd" clip-rule="evenodd" fill="#E8AF72" d="M151.765,167.6c-3.214-5.192-4.82-7.786-4.82-7.786
	c3.559-3.115,5.375-4.708,5.375-4.708l2.706,4.596C152.333,165.237,151.765,167.6,151.765,167.6z"/>
<path fill-rule="evenodd" clip-rule="evenodd" fill="#E8AF72" d="M214.013,149.472c-4.82-2.35-7.231-4.116-7.231-4.116
	c0.94,4.572,1.41,7.453,1.41,7.453c-0.124,3.855-0.185,5.782-0.185,5.782C212.011,152.512,214.013,149.472,214.013,149.472z"/>
<path fill-rule="evenodd" clip-rule="evenodd" fill="#BD8952" d="M86.181,201.806c-2.47-1.583-3.707-2.373-3.707-2.373
	c7.019-1.534,10.529-2.299,10.529-2.299c1.778-4.944,2.669-7.416,2.669-7.416c2.124,4.944,3.188,7.416,3.188,7.416
	c6.854-0.159,9.845-0.232,8.972-0.224c-5.043,4.35-7.562,6.526-7.562,6.526c-2.375,0.247-3.561,0.371-3.561,0.371
	c-0.297,2.867-0.443,4.301-0.443,4.301c-2.324-2.472-3.487-3.707-3.487-3.707c-4.15-0.1-6.228-0.15-6.228-0.15
	C86.305,202.622,86.181,201.806,86.181,201.806z"/>
<path fill-rule="evenodd" clip-rule="evenodd" fill="#B86C32" d="M129.638,237.322c-1.882-20.217-2.822-30.326-2.822-30.326
	c-1.536,1.817-3.857,3.434-6.971,4.848c-3.538,8.72-5.243,12.738-5.114,12.057c-3.166-6.625-4.747-9.935-4.747-9.935
	c-12.657,5.174-25.409,8.116-38.259,8.822c-1.679,6.329-2.519,9.493-2.519,9.493c-3.361-8.451-5.042-12.677-5.042-12.677
	c-4.134,0.295-9.3-1.459-15.495-5.266c3.298,11.792,6.512,20.565,9.64,26.321c-0.366,4.643-0.588,9.167-0.669,13.57
	C82.209,269.329,114.359,261.781,129.638,237.322z"/>
<path fill-rule="evenodd" clip-rule="evenodd" fill="#E8AF72" d="M69.138,228.091c-2.2-6.152-3.3-9.23-3.3-9.23
	c3.536-2.274,5.302-3.41,5.302-3.41c-0.098,2.693-0.149,4.041-0.149,4.041C69.756,225.225,69.138,228.091,69.138,228.091z"/>
<path fill-rule="evenodd" clip-rule="evenodd" fill="#E8AF72" d="M118.188,210.114l-7.192-3.373l0.333,5.451
	c2.199,5.387,3.3,8.081,3.3,8.081C117.307,213.303,118.493,209.917,118.188,210.114z"/>
<path fill-rule="evenodd" clip-rule="evenodd" fill="#E8AF72" d="M233.154,186.244c29.871,2.657,46.912-1.768,51.121-13.273
	c-2.405-8.33-9.334-14.567-17.869-16.091c-6.425,5.29-9.638,7.935-9.638,7.935c-2.224-6.524-3.336-9.788-3.336-9.788
	c-12.58-3.501-26.058,0.435-34.774,10.16c-2.405,2.22-3.243,5.666-2.126,8.744c1.117,3.076,3.971,5.182,7.243,5.343
	c11.145-1.284,16.447-1.791,15.904-1.52C235.329,183.414,233.154,186.244,233.154,186.244z"/>
<path fill-rule="evenodd" clip-rule="evenodd" fill="#B86C32" d="M216.216,178.759c-3.861,20.39-6.409,39.321-7.637,56.793
	c6.83,11.32,18.339,19.013,31.408,20.99c13.07,1.978,26.343-1.965,36.212-10.759c3.17-42.505,4.702-63.859,4.598-64.06
	c-13.338,7.617-29.427,9.865-48.269,6.746c-3.016,6.476-4.525,9.713-4.525,9.713c-2.173-10.578-3.261-15.867-3.261-15.867
	C222.092,182.294,219.25,181.108,216.216,178.759z"/>
<path fill-rule="evenodd" clip-rule="evenodd" fill="#BD8952" d="M254.498,173.927c1.516,0.83,1.713,1.29,0.59,1.381
	c-2.728-0.83-4.095-1.245-4.095-1.245c-2.708,0.952-4.063,1.426-4.063,1.426c-0.853,0.089-1.056-0.114-0.608-0.606
	c0.952-1.273,1.426-1.912,1.426-1.912c-1.758-3.54-1.566-4.582,0.576-3.123c1.559,1.465,2.614,1.338,3.172-0.38
	c0.598-1.919,1.432-1.963,2.502-0.137c-0.592,1.135-0.419,1.675,0.515,1.624c0.847,0.114,0.916,0.468,0.214,1.062
	C252.559,172.706,252.481,173.345,254.498,173.927z"/>
<path fill-rule="evenodd" clip-rule="evenodd" fill="#B86C32" d="M294.254,171.438c-7.516,6.871-11.273,10.307-11.273,10.307
	c-0.691,15.173-1.038,22.762-1.038,22.762c10.482-19.542,15.178-28.587,14.089-27.138
	C294.846,173.416,294.254,171.438,294.254,171.438z"/>
<path fill-rule="evenodd" clip-rule="evenodd" fill="#BD8952" d="M250.947,178.091c-9.637,0-17.45-2.838-17.45-6.339
	s7.812-6.34,17.45-6.34c9.636,0,17.45,2.838,17.45,6.34S260.583,178.091,250.947,178.091L250.947,178.091z M270.851,171.752
	c0-3.713-5.21-6.889-12.575-8.179l-1.508,1.241l-0.525-1.54c-1.687-0.206-3.463-0.315-5.296-0.315
	c-10.992,0-19.903,3.937-19.903,8.793c0,2.382,2.142,4.543,5.625,6.128c2.258-0.209,3.261-0.252,3.009-0.126l-0.771,1.001
	c3.343,1.123,7.516,1.791,12.04,1.791C261.94,180.545,270.851,176.608,270.851,171.752z"/>
<g>
	<path fill-rule="evenodd" clip-rule="evenodd" fill="#006633" d="M297.078,173.123l-0.065,0.041l-1.123-0.799
		c-4.224-2.999-6.531-8.026-6.051-13.184c0.48-5.16,3.674-9.672,8.38-11.841l1.253-0.578l1.003,0.948
		c3.528,3.325,5.324,8.089,4.875,12.915c-0.136,1.467-0.476,2.891-0.997,4.234c4.114-1.843,8.954-1.477,12.746,1.013l1.068,0.702
		l-0.163,1.267c-0.586,4.549-3.365,8.519-7.434,10.632c-4.065,2.114-8.919,2.098-12.972-0.041l-1.129-0.596l0.043-1.277
		C296.549,175.379,296.744,174.224,297.078,173.123z"/>
	<g>
		<path fill-rule="evenodd" clip-rule="evenodd" fill="#34994A" d="M315.979,167.579c-3.404-2.234-7.748-2.454-11.361-0.58
			c-3.613,1.878-5.933,5.559-6.065,9.627c3.461,1.827,7.607,1.835,11.076,0.035C313.105,174.853,315.478,171.461,315.979,167.579z"
			/>
		<path fill-rule="evenodd" clip-rule="evenodd" fill="#34994A" d="M299.074,149.195c-4.042,1.864-6.787,5.741-7.2,10.177
			c-0.413,4.431,1.568,8.748,5.198,11.326c3.55-2.276,5.853-6.062,6.244-10.262C303.706,156.235,302.142,152.09,299.074,149.195z"/>
	</g>
	<path fill-rule="evenodd" clip-rule="evenodd" fill="#006633" d="M295.991,171.363c1.457-0.104,2.185-0.155,2.185-0.155
		c0.118-2.936-0.006-6.001-0.368-9.196C296.223,166.434,295.619,169.55,295.991,171.363z"/>
	<path fill-rule="evenodd" clip-rule="evenodd" fill="#006633" d="M298.207,176.808c-0.246-0.8-0.368-1.2-0.368-1.2
		c3.009-0.519,5.818-1.278,8.427-2.277C303.549,175.394,300.864,176.551,298.207,176.808z"/>
</g>
<path fill-rule="evenodd" clip-rule="evenodd" fill="#E8AF72" d="M232.364,185.236c0.588-0.767,3.268-5.042,3.857-5.806
	c-1.296,0.138-9.047,1.387-10.341,1.536l2.718,12.878L232.364,185.236z"/>
</svg>
